<?xml version="1.0" encoding="UTF-8"?>
<svg width="134px" height="96px" viewBox="0 0 134 96" version="1.1" xmlns="http://www.w3.org/2000/svg" xmlns:xlink="http://www.w3.org/1999/xlink">
    <title>01-4计算智能化</title>
    <defs>
        <radialGradient cx="49.9999996%" cy="2.46780258%" fx="49.9999996%" fy="2.46780258%" r="70.7386765%" gradientTransform="translate(0.500000,0.024678),scale(0.546259,1.000000),rotate(91.833490),translate(-0.500000,-0.024678)" id="radialGradient-1">
            <stop stop-color="#0052D9" stop-opacity="0.15156181" offset="0%"></stop>
            <stop stop-color="#0052D9" stop-opacity="0" offset="100%"></stop>
        </radialGradient>
        <linearGradient x1="0%" y1="100%" x2="0%" y2="0%" id="linearGradient-2">
            <stop stop-color="#819CFF" offset="0%"></stop>
            <stop stop-color="#B8C7FF" offset="100%"></stop>
        </linearGradient>
        <linearGradient x1="0%" y1="99.6815928%" x2="0%" y2="0%" id="linearGradient-3">
            <stop stop-color="#86AFF2" offset="3.93288352%"></stop>
            <stop stop-color="#A9CAFF" offset="100%"></stop>
        </linearGradient>
        <linearGradient x1="0%" y1="138.301288%" x2="0%" y2="27.1824266%" id="linearGradient-4">
            <stop stop-color="#5F9AFC" offset="0%"></stop>
            <stop stop-color="#9DC2FF" offset="100%"></stop>
        </linearGradient>
        <linearGradient x1="50%" y1="100%" x2="50%" y2="-18.0505303%" id="linearGradient-5">
            <stop stop-color="#5E9BFF" offset="0%"></stop>
            <stop stop-color="#E2EDFF" offset="100%"></stop>
        </linearGradient>
        <linearGradient x1="0%" y1="100%" x2="0%" y2="0%" id="linearGradient-6">
            <stop stop-color="#DFEAFF" offset="0.135045618%"></stop>
            <stop stop-color="#FFFFFF" offset="100%"></stop>
        </linearGradient>
        <linearGradient x1="50%" y1="0%" x2="50%" y2="100%" id="linearGradient-7">
            <stop stop-color="#CBDFFF" offset="0%"></stop>
            <stop stop-color="#659FFF" offset="100%"></stop>
        </linearGradient>
        <linearGradient x1="50%" y1="0%" x2="50%" y2="100%" id="linearGradient-8">
            <stop stop-color="#CBDFFF" offset="0%"></stop>
            <stop stop-color="#659FFF" offset="100%"></stop>
        </linearGradient>
        <linearGradient x1="50%" y1="0%" x2="50%" y2="100%" id="linearGradient-9">
            <stop stop-color="#CBDFFF" offset="0%"></stop>
            <stop stop-color="#659FFF" offset="100%"></stop>
        </linearGradient>
    </defs>
    <g id="页面-1" stroke="none" stroke-width="1" fill="none" fill-rule="evenodd">
        <g id="01Light" transform="translate(-528.000000, -567.000000)">
            <rect fill="#FFFFFF" x="0" y="0" width="1440" height="1081"></rect>
            <rect id="矩形" x="220" y="0" width="1000" height="903"></rect>
            <rect id="矩形备份-2" fill="#FFFFFF" x="470" y="541" width="250" height="288"></rect>
            <g id="01-4计算智能化" transform="translate(528.000000, 567.000000)">
                <g id="暂无视频-(1)" transform="translate(0.000000, 0.000000)" fill-rule="nonzero">
                    <g id="编组" transform="translate(0.000000, 22.714286)" fill="url(#radialGradient-1)">
                        <polygon id="椭圆形" points="133.636364 36.5 133.599828 37.7088172 133.490219 38.9097849 133.310716 40.1029032 133.059729 41.2907885 132.737258 42.4747491 132.341715 43.6534767 131.782553 45.0375986 131.126492 46.4099462 130.371942 47.7705197 129.514138 49.1232437 128.549902 50.4681183 127.522126 51.7541219 126.397449 53.0244265 125.172696 54.2803405 123.844688 55.5218638 122.410248 56.7503047 120.940861 57.9067921 119.374575 59.0397312 117.709799 60.1517384 115.941769 61.2415054 114.06572 62.3090323 112.170608 63.3046057 110.207189 64.2570072 108.173876 65.168853 106.069078 66.0401434 103.88962 66.8669534 101.700631 67.6309677 99.4576317 68.3491935 97.1590342 69.0203226 94.8032497 69.6443548 92.3886897 70.2212903 89.9741297 70.7380466 87.5214451 71.2037814 85.0274588 71.6184946 82.4921708 71.9808781 79.9139926 72.2922401 77.3437571 72.5447312 74.7481051 72.742276 72.1302138 72.8848746 69.486906 72.9699104 66.8181818 73 64.1494576 72.9699104 61.5061499 72.8848746 58.8882585 72.742276 56.2926065 72.5447312 53.722371 72.2922401 51.1441928 71.9808781 48.6089048 71.6184946 46.1149185 71.2037814 43.6622339 70.7380466 41.2476739 70.2212903 38.833114 69.6443548 36.4773295 69.0203226 34.1787319 68.3491935 31.9357328 67.6309677 29.7467435 66.8669534 27.5672854 66.0401434 25.4624881 65.168853 23.4291744 64.2570072 21.4657559 63.3046057 19.570644 62.3090323 17.6945945 61.2415054 15.9265647 60.1517384 14.2617891 59.0397312 12.6955022 57.9067921 11.2261154 56.7503047 9.79167612 55.5218638 8.46366813 54.2803405 7.23891436 53.0244265 6.11423773 51.7541219 5.08646122 50.4681183 4.12222575 49.1232437 3.26442155 47.7705197 2.50987156 46.4099462 1.85381019 45.0375986 1.29464894 43.6534767 0.899105887 42.4747491 0.576635047 41.2907885 0.325647892 40.1029032 0.14614442 38.9097849 0.0365361049 37.7088172 1.84741111e-13 36.5 0.0365361049 35.2911828 0.14614442 34.0902151 0.325647892 32.8970968 0.576635047 31.7092115 0.899105887 30.5252509 1.29464894 29.3465233 1.85381019 27.9624014 2.50987156 26.5900538 3.26442155 25.2294803 4.12222575 23.8767563 5.08646122 22.5318817 6.11423773 21.2458781 7.23891436 19.9755735 8.46366813 18.7196595 9.79167612 17.4781362 11.2261154 16.2496953 12.6955022 15.0932079 14.2617891 13.9602688 15.9265647 12.8482616 17.6945945 11.7584946 19.570644 10.6909677 21.4657559 9.69539427 23.4291744 8.74299283 25.4624881 7.83114695 27.5672854 6.95985663 29.7467435 6.13304659 31.9357328 5.36903226 34.1787319 4.65080645 36.4773295 3.97967742 38.833114 3.35564516 41.2476739 2.77870968 43.6622339 2.26195341 46.1149185 1.79621864 48.6089048 1.38150538 51.1441928 1.01912186 53.722371 0.707759857 56.2926065 0.455268817 58.8882585 0.257724014 61.5061499 0.115125448 64.1494576 0.0300896057 66.8181818 0 69.486906 0.0300896057 72.1302138 0.115125448 74.7481051 0.257724014 77.3437571 0.455268817 79.9139926 0.707759857 82.4921708 1.01912186 85.0274588 1.38150538 87.5214451 1.79621864 89.9741297 2.26195341 92.3886897 2.77870968 94.8032497 3.35564516 97.1590342 3.97967742 99.4576317 4.65080645 101.700631 5.36903226 103.88962 6.13304659 106.069078 6.95985663 108.173876 7.83114695 110.207189 8.74299283 112.170608 9.69539427 114.06572 10.6909677 115.941769 11.7584946 117.709799 12.8482616 119.374575 13.9602688 120.940861 15.0932079 122.410248 16.2496953 123.844688 17.4781362 125.172696 18.7196595 126.397449 19.9755735 127.522126 21.2458781 128.549902 22.5318817 129.514138 23.8767563 130.371942 25.2294803 131.126492 26.5900538 131.782553 27.9624014 132.341715 29.3465233 132.737258 30.5252509 133.059729 31.7092115 133.310716 32.8970968 133.490219 34.0902151 133.599828 35.2911828"></polygon>
                    </g>
                    <g id="编组-20" transform="translate(39.666667, 0.000000)">
                        <g id="编组" transform="translate(-0.000000, 0.000000)">
                            <g id="路径" transform="translate(18.913126, 35.314578)">
                                <g id="path-10-link" transform="translate(0.000000, 0.000000)" fill="#90A1DC">
                                    <polygon id="path-10" points="7.05213665e-13 2.97539771e-13 14.3935953 2.97539771e-13 14.3935953 7.25559536 7.05213665e-13 7.25559536"></polygon>
                                </g>
                                <g id="path-10-link" transform="translate(0.000000, 0.000000)" fill="url(#linearGradient-2)">
                                    <polygon id="path-10" points="7.05213665e-13 2.97539771e-13 14.3935953 2.97539771e-13 14.3935953 7.25559536 7.05213665e-13 7.25559536"></polygon>
                                </g>
                                <g id="path-10-link" transform="translate(0.000000, 0.000000)" fill="url(#linearGradient-3)">
                                    <polygon id="path-10" points="7.05213665e-13 2.97539771e-13 14.3935953 2.97539771e-13 14.3935953 7.25559536 7.05213665e-13 7.25559536"></polygon>
                                </g>
                            </g>
                            <path d="M18.913126,30.1363106 L33.3067213,30.1363106 L33.3067213,37.3919058 L18.913126,37.3919058 L18.913126,30.1363106 Z M36.8511076,44.7619048 L15.3745787,44.7619048 C15.1351721,44.7619048 14.9366397,44.5571826 14.9366397,44.3103116 L14.9366397,43.6299116 C14.9366397,43.5395928 15.00671,43.467338 15.0942978,43.467338 L37.1372278,43.467338 C37.2248155,43.467338 37.2948858,43.5395928 37.2948858,43.6299116 L37.2948858,44.3103116 C37.2890466,44.5632038 37.0963535,44.7619048 36.8511076,44.7619048 Z" id="形状" fill="#4A89F0"></path>
                            <path d="M37.0554792,43.8888248 L15.164368,43.8888248 C14.9424789,43.8888248 14.8432127,43.5998052 15.0183883,43.4613167 L18.913126,40.2580166 L33.3067213,40.2580166 L37.2014588,43.4613167 C37.3766345,43.5998052 37.2773682,43.8888248 37.0554792,43.8888248 Z" id="路径" fill="url(#linearGradient-4)"></path>
                            <path d="M51.2213462,36.0130417 L1.05105362,36.0130417 C0.472974128,36.0130417 -1.03028697e-13,35.5253213 -1.03028697e-13,34.9292184 L-1.03028697e-13,1.08382336 C-1.03028697e-13,0.487720512 0.472974128,3.55271368e-15 1.05105362,3.55271368e-15 L51.215507,3.55271368e-15 C51.7935865,3.55271368e-15 52.2666667,0.487720512 52.2666667,1.08382336 L52.2666667,34.9352396 C52.2723998,35.5313424 51.7994258,36.0130417 51.2213462,36.0130417 Z" id="路径" fill="url(#linearGradient-5)"></path>
                            <polygon id="路径" fill="url(#linearGradient-6)" points="2.44661926 2.41451759 49.8841725 2.41451759 49.8841725 31.9366616 2.44661926 31.9366616"></polygon>
                            <polygon id="路径" fill="#FFFFFF" opacity="0.313334147" points="32.6352148 31.8041944 18.2299411 31.647642 46.5908712 2.42053883 49.8608157 2.42053883 49.8024238 14.1017462"></polygon>
                            <polygon id="路径" fill="#FFFFFF" opacity="0.313334147" points="7.87706294 31.9848316 5.2494289 31.9848316 33.832248 2.42053883 36.459882 2.42053883"></polygon>
                        </g>
                    </g>
                </g>
                <g id="编组-2" transform="translate(56.000000, 7.000000)">
                    <path d="M12.9085091,4.04542725 C12.2417683,1.73081578 11.2240414,0.251674697 10.0837277,0.251674697 C8.07534278,0.251674697 6.44722514,4.84000622 6.44722514,10.5 C6.44722514,16.1599938 8.07534278,20.7483253 10.0837277,20.7483253 C11.245622,20.7483253 12.2802456,19.2126686 12.9459849,16.8222665" id="路径" stroke="url(#linearGradient-7)" transform="translate(9.696605, 10.500000) rotate(32.000000) translate(-9.696605, -10.500000) "></path>
                    <path d="M12.9085091,4.04542725 C12.2417683,1.73081578 11.2240414,0.251674697 10.0837277,0.251674697 C8.07534278,0.251674697 6.44722514,4.84000622 6.44722514,10.5 C6.44722514,16.1599938 8.07534278,20.7483253 10.0837277,20.7483253 C11.245622,20.7483253 12.2802456,19.2126686 12.9459849,16.8222665" id="路径" stroke="url(#linearGradient-7)" transform="translate(9.696605, 10.500000) rotate(-30.000000) translate(-9.696605, -10.500000) "></path>
                    <path d="M12.9654004,4.70182682 C12.3498298,2.44330029 11.4102103,1 10.3574122,1 C8.50316463,1 7,5.4771525 7,11 C7,16.5228475 8.50316463,21 10.3574122,21 C11.4301347,21 12.3853541,19.5015535 13,17.1690728" id="路径" stroke="url(#linearGradient-8)" transform="translate(10.000000, 11.000000) scale(1, -1) rotate(-90.000000) translate(-10.000000, -11.000000) "></path>
                    <circle id="椭圆形" stroke="url(#linearGradient-9)" cx="11.5" cy="11.5" r="2"></circle>
                </g>
            </g>
        </g>
    </g>
</svg>