<?xml version="1.0" encoding="UTF-8"?>
<svg width="137px" height="97px" viewBox="0 0 137 97" version="1.1" xmlns="http://www.w3.org/2000/svg" xmlns:xlink="http://www.w3.org/1999/xlink">
    <title>01-5定制模块化</title>
    <defs>
        <radialGradient cx="49.9999996%" cy="2.46780258%" fx="49.9999996%" fy="2.46780258%" r="70.7394406%" gradientTransform="translate(0.500000,0.024678),scale(0.540584,1.000000),rotate(91.852721),translate(-0.500000,-0.024678)" id="radialGradient-1">
            <stop stop-color="#0052D9" stop-opacity="0.15156181" offset="0%"></stop>
            <stop stop-color="#0052D9" stop-opacity="0" offset="100%"></stop>
        </radialGradient>
        <linearGradient x1="69.0929772%" y1="11.5327565%" x2="1.38095003%" y2="112.401832%" id="linearGradient-2">
            <stop stop-color="#B7D6FF" offset="0%"></stop>
            <stop stop-color="#E2EDFF" offset="100%"></stop>
        </linearGradient>
        <linearGradient x1="57.6669179%" y1="81.915%" x2="-2.09919789%" y2="0%" id="linearGradient-3">
            <stop stop-color="#6783E7" offset="0%"></stop>
            <stop stop-color="#496AE0" offset="100%"></stop>
        </linearGradient>
        <linearGradient x1="53.3455858%" y1="12.8759666%" x2="44.8197015%" y2="100%" id="linearGradient-4">
            <stop stop-color="#72A7FE" offset="0%"></stop>
            <stop stop-color="#A9CAFF" offset="100%"></stop>
        </linearGradient>
        <linearGradient x1="57.6669179%" y1="81.915%" x2="-2.09919789%" y2="0%" id="linearGradient-5">
            <stop stop-color="#7998E9" offset="0%"></stop>
            <stop stop-color="#496AE0" offset="100%"></stop>
        </linearGradient>
        <linearGradient x1="53.3455858%" y1="12.8759666%" x2="44.8197015%" y2="100%" id="linearGradient-6">
            <stop stop-color="#5E9BFF" offset="0%"></stop>
            <stop stop-color="#A9CAFF" offset="100%"></stop>
        </linearGradient>
        <linearGradient x1="-2.09919789%" y1="0%" x2="28.3652871%" y2="95.63%" id="linearGradient-7">
            <stop stop-color="#496AE0" offset="0%"></stop>
            <stop stop-color="#839EFF" offset="100%"></stop>
        </linearGradient>
        <linearGradient x1="53.3455858%" y1="12.8759666%" x2="44.8197015%" y2="100%" id="linearGradient-8">
            <stop stop-color="#85B3FF" offset="0%"></stop>
            <stop stop-color="#A9CAFF" offset="100%"></stop>
        </linearGradient>
        <linearGradient x1="53.3455858%" y1="12.8759666%" x2="44.8197015%" y2="100%" id="linearGradient-9">
            <stop stop-color="#78AAFD" offset="0%"></stop>
            <stop stop-color="#A9CAFF" offset="100%"></stop>
        </linearGradient>
    </defs>
    <g id="页面-1" stroke="none" stroke-width="1" fill="none" fill-rule="evenodd">
        <g id="01Light" transform="translate(-777.000000, -567.000000)">
            <rect fill="#FFFFFF" x="0" y="0" width="1440" height="1081"></rect>
            <rect id="矩形" x="220" y="0" width="1000" height="903"></rect>
            <rect id="矩形备份-3" fill="#FFFFFF" x="720" y="541" width="250" height="288"></rect>
            <g id="01-5定制模块化" transform="translate(777.000000, 567.000000)" fill-rule="nonzero">
                <g id="编组" transform="translate(0.000000, 22.428571)" fill="url(#radialGradient-1)">
                    <polygon id="椭圆形" points="136.888889 37 136.851464 38.2253763 136.739188 39.4427957 136.555315 40.6522581 136.298219 41.8564158 135.9679 43.056595 135.56273 44.2514695 134.98996 45.654552 134.317931 47.0456989 133.545016 48.4249104 132.666334 49.7961649 131.67863 51.1594624 130.625839 52.4630824 129.473789 53.7507885 128.219227 55.0239068 126.858897 56.2824373 125.389545 57.5277061 123.884396 58.7000358 122.279987 59.8484946 120.574694 60.9757348 118.763632 62.0804301 116.841922 63.1625806 114.900686 64.1717921 112.889481 65.1372401 110.806679 66.0615771 108.650654 66.9448029 106.418151 67.7829391 104.175884 68.5574194 101.878294 69.2854839 99.5237514 69.9658065 97.1106304 70.5983871 94.6373033 71.1832258 92.1639763 71.7070609 89.6515967 72.1791756 87.0969102 72.5995699 84.4999168 72.9669176 81.8589893 73.2825448 79.2261977 73.5384946 76.5673712 73.7387455 73.8857639 73.8832975 71.1781217 73.9694982 68.4444444 74 65.7107672 73.9694982 63.0031249 73.8832975 60.3215177 73.7387455 57.6626911 73.5384946 55.0298996 73.2825448 52.3889721 72.9669176 49.7919787 72.5995699 47.2372922 72.1791756 44.7249126 71.7070609 42.2515856 71.1832258 39.7782585 70.5983871 37.3651375 69.9658065 35.0105952 69.2854839 32.7130046 68.5574194 30.4707383 67.7829391 28.2382352 66.9448029 26.08221 66.0615771 23.9994083 65.1372401 21.9882029 64.1717921 20.0469666 63.1625806 18.1252566 62.0804301 16.3141954 60.9757348 14.6089015 59.8484946 13.0044933 58.7000358 11.4993436 57.5277061 10.029992 56.2824373 8.66966217 55.0239068 7.41509957 53.7507885 6.26304987 52.4630824 5.21025869 51.1594624 4.22255506 49.7961649 3.34387308 48.4249104 2.57095838 47.0456989 1.89892938 45.654552 1.32615891 44.2514695 0.920988887 43.056595 0.590669551 41.8564158 0.333573714 40.6522581 0.149701374 39.4427957 0.0374253435 38.2253763 7.95807864e-13 37 0.0374253435 35.7746237 0.149701374 34.5572043 0.333573714 33.3477419 0.590669551 32.1435842 0.920988887 30.943405 1.32615891 29.7485305 1.89892938 28.345448 2.57095838 26.9543011 3.34387308 25.5750896 4.22255506 24.2038351 5.21025869 22.8405376 6.26304987 21.5369176 7.41509957 20.2492115 8.66966217 18.9760932 10.029992 17.7175627 11.4993436 16.4722939 13.0044933 15.2999642 14.6089015 14.1515054 16.3141954 13.0242652 18.1252566 11.9195699 20.0469666 10.8374194 21.9882029 9.82820789 23.9994083 8.86275986 26.08221 7.93842294 28.2382352 7.05519713 30.4707383 6.21706093 32.7130046 5.44258065 35.0105952 4.71451613 37.3651375 4.03419355 39.7782585 3.4016129 42.2515856 2.81677419 44.7249126 2.29293907 47.2372922 1.82082437 49.7919787 1.40043011 52.3889721 1.03308244 55.0298996 0.717455197 57.6626911 0.461505376 60.3215177 0.26125448 63.0031249 0.116702509 65.7107672 0.0305017921 68.4444444 0 71.1781217 0.0305017921 73.8857639 0.116702509 76.5673712 0.26125448 79.2261977 0.461505376 81.8589893 0.717455197 84.4999168 1.03308244 87.0969102 1.40043011 89.6515967 1.82082437 92.1639763 2.29293907 94.6373033 2.81677419 97.1106304 3.4016129 99.5237514 4.03419355 101.878294 4.71451613 104.175884 5.44258065 106.418151 6.21706093 108.650654 7.05519713 110.806679 7.93842294 112.889481 8.86275986 114.900686 9.82820789 116.841922 10.8374194 118.763632 11.9195699 120.574694 13.0242652 122.279987 14.1515054 123.884396 15.2999642 125.389545 16.4722939 126.858897 17.7175627 128.219227 18.9760932 129.473789 20.2492115 130.625839 21.5369176 131.67863 22.8405376 132.666334 24.2038351 133.545016 25.5750896 134.317931 26.9543011 134.98996 28.345448 135.56273 29.7485305 135.9679 30.943405 136.298219 32.1435842 136.555315 33.3477419 136.739188 34.5572043 136.851464 35.7746237"></polygon>
                </g>
                <g id="路径" transform="translate(44.620253, 0.000000)">
                    <polygon fill="#7691F1" points="-8.10018719e-13 24.5401174 -8.10018719e-13 41.6074924 16.1558961 43.9138943 16.1558961 26.8465194"></polygon>
                    <polygon fill="url(#linearGradient-2)" points="-8.10018719e-13 24.5401174 -8.10018719e-13 41.6074924 16.1558961 43.9138943 16.1558961 26.8465194"></polygon>
                    <polygon fill="#4F6FE1" points="16.1558961 43.7524462 25.1499001 39.115106 25.1499001 21.9569472 16.1558961 26.5942873"></polygon>
                    <g id="编组" transform="translate(16.155896, 21.956947)">
                        <g id="path-11-link" transform="translate(-0.000000, -0.000000)" fill="url(#linearGradient-3)">
                            <polygon id="path-11" points="-8.06466005e-13 21.795499 8.994004 17.1581588 8.994004 -3.26849658e-13 -8.06466005e-13 4.63734018"></polygon>
                        </g>
                        <g id="path-11-link" transform="translate(-0.000000, -0.000000)" fill="url(#linearGradient-4)">
                            <polygon id="path-11" points="-8.06466005e-13 21.795499 8.994004 17.1581588 8.994004 -3.26849658e-13 -8.06466005e-13 4.63734018"></polygon>
                        </g>
                    </g>
                    <polygon fill="#4F6FE1" points="16.2407452 26.8003914 25.3164557 22.1722113 9.07571053 19.8581213 6.25277607e-13 24.4863014"></polygon>
                    <polygon fill="#5C96F6" points="16.2407452 26.8003914 25.3164557 22.1722113 9.07571053 19.8581213 6.25277607e-13 24.4863014"></polygon>
                    <polygon fill="#7691F1" points="-8.10018719e-13 4.68199609 -8.10018719e-13 21.749371 16.1558961 24.055773 16.1558961 6.9883981"></polygon>
                    <polygon fill="url(#linearGradient-2)" points="-8.10018719e-13 4.68199609 -8.10018719e-13 21.749371 16.1558961 24.055773 16.1558961 6.9883981"></polygon>
                    <polygon fill="#4F6FE1" points="16.1558961 24.055773 25.1499001 19.4184328 25.1499001 2.26027397 16.1558961 6.8976142"></polygon>
                    <g id="编组" transform="translate(16.155896, 2.260274)">
                        <g id="path-14-link" transform="translate(-0.000000, -0.000000)" fill="url(#linearGradient-5)">
                            <polygon id="path-14" points="-8.06466005e-13 21.795499 8.994004 17.1581588 8.994004 -3.30402372e-13 -8.06466005e-13 4.63734022"></polygon>
                        </g>
                        <g id="path-14-link" transform="translate(-0.000000, -0.000000)" fill="url(#linearGradient-6)">
                            <polygon id="path-14" points="-8.06466005e-13 21.795499 8.994004 17.1581588 8.994004 -3.30402372e-13 -8.06466005e-13 4.63734022"></polygon>
                        </g>
                    </g>
                    <polygon fill="#4F6FE1" points="16.2407452 6.94227006 25.3164557 2.31409001 9.07571053 4.2144066e-13 6.25277607e-13 4.62818004"></polygon>
                    <polygon fill="#CEE0FF" points="16.2407452 6.94227006 25.3164557 2.31409001 9.07571053 4.2144066e-13 6.25277607e-13 4.62818004"></polygon>
                    <polygon fill="#7691F1" points="19.1538974 27.7690802 19.1538974 44.8364552 35.3097935 47.1428571 35.3097935 30.0754822"></polygon>
                    <polygon fill="url(#linearGradient-2)" points="19.1538974 27.7690802 19.1538974 44.8364552 35.3097935 47.1428571 35.3097935 30.0754822"></polygon>
                    <polygon fill="#4F6FE1" points="35.1432378 47.1428571 44.1372418 42.505517 44.1372418 25.3473581 35.1432378 29.9846983"></polygon>
                    <g id="编组" transform="translate(35.143238, 25.347358)">
                        <g id="path-17-link" transform="translate(-0.000000, -0.000000)" fill="url(#linearGradient-7)">
                            <polygon id="path-17" points="-8.06466005e-13 21.795499 8.994004 17.1581588 8.994004 -3.33955086e-13 -8.06466005e-13 4.63734018"></polygon>
                        </g>
                        <g id="path-17-link" transform="translate(-0.000000, -0.000000)" fill="url(#linearGradient-8)">
                            <polygon id="path-17" points="-8.06466005e-13 21.795499 8.994004 17.1581588 8.994004 -3.33955086e-13 -8.06466005e-13 4.63734018"></polygon>
                        </g>
                    </g>
                    <polygon fill="#4F6FE1" points="35.2280869 30.0293542 44.3037975 25.4011741 28.0630523 23.0870841 18.9873418 27.7152642"></polygon>
                    <polygon fill="#5C96F6" points="35.2280869 30.0293542 44.3037975 25.4011741 28.0630523 23.0870841 18.9873418 27.7152642"></polygon>
                    <polygon fill="#7691F1" points="19.1538974 7.74951076 19.1538974 24.8168857 35.3097935 27.1232877 35.3097935 10.0559128"></polygon>
                    <polygon fill="url(#linearGradient-2)" points="19.1538974 7.74951076 19.1538974 24.8168857 35.3097935 27.1232877 35.3097935 10.0559128"></polygon>
                    <polygon fill="#4F6FE1" points="35.1432378 27.2847358 44.1372418 22.6473956 44.1372418 5.48923679 35.1432378 10.126577"></polygon>
                    <g id="编组" transform="translate(35.143238, 5.489237)">
                        <g id="path-19-link" transform="translate(-0.000000, -0.000000)" fill="url(#linearGradient-7)">
                            <polygon id="path-19" points="-8.06466005e-13 21.795499 8.994004 17.1581588 8.994004 -3.30402372e-13 -8.06466005e-13 4.63734022"></polygon>
                        </g>
                        <g id="path-19-link" transform="translate(-0.000000, -0.000000)" fill="url(#linearGradient-9)">
                            <polygon id="path-19" points="-8.06466005e-13 21.795499 8.994004 17.1581588 8.994004 -3.30402372e-13 -8.06466005e-13 4.63734022"></polygon>
                        </g>
                    </g>
                    <polygon fill="#4F6FE1" points="35.2280869 10.1712329 44.3037975 5.54305283 28.0630523 3.22896282 18.9873418 7.85714286"></polygon>
                    <polygon fill="#CEE0FF" points="35.2280869 10.1712329 44.3037975 5.54305283 28.0630523 3.22896282 18.9873418 7.85714286"></polygon>
                </g>
            </g>
        </g>
    </g>
</svg>