<?xml version="1.0" encoding="UTF-8"?>
<svg width="34px" height="33px" viewBox="0 0 34 33" version="1.1" xmlns="http://www.w3.org/2000/svg" xmlns:xlink="http://www.w3.org/1999/xlink">
    <title>01-7GIthub</title>
    <defs>
        <rect id="path-1" x="222" y="891" width="289" height="90" rx="16"></rect>
        <filter x="-7.6%" y="-22.2%" width="115.2%" height="148.9%" filterUnits="objectBoundingBox" id="filter-2">
            <feOffset dx="0" dy="2" in="SourceAlpha" result="shadowOffsetOuter1"></feOffset>
            <feGaussianBlur stdDeviation="7" in="shadowOffsetOuter1" result="shadowBlurOuter1"></feGaussianBlur>
            <feComposite in="shadowBlurOuter1" in2="SourceAlpha" operator="out" result="shadowBlurOuter1"></feComposite>
            <feColorMatrix values="0 0 0 0 0.788235294   0 0 0 0 0.878431373   0 0 0 0 1  0 0 0 1 0" type="matrix" in="shadowBlurOuter1"></feColorMatrix>
        </filter>
    </defs>
    <g id="页面-1" stroke="none" stroke-width="1" fill="none" fill-rule="evenodd">
        <g id="01Light" transform="translate(-254.000000, -920.000000)">
            <rect fill="#FFFFFF" x="0" y="0" width="1440" height="1081"></rect>
            <rect id="矩形" fill="#F3F4F7" x="0" y="794" width="1440" height="250"></rect>
            <g id="矩形">
                <use fill="black" fill-opacity="1" filter="url(#filter-2)" xlink:href="#path-1"></use>
                <rect stroke="#74A4FF" stroke-width="1" stroke-linejoin="square" fill="#FFFFFF" fill-rule="evenodd" x="222.5" y="891.5" width="288" height="89" rx="16"></rect>
            </g>
            <g id="01-7GIthub" transform="translate(254.000000, 920.000000)" fill="#666666" fill-rule="nonzero">
                <path d="M34,16.9271845 C33.994442,24.203949 29.3116328,30.6615327 22.3728525,32.9609888 C22.113137,33.0406239 21.8310402,32.9969628 21.6079089,32.8425958 C21.3848009,32.6811291 21.2522531,32.4236461 21.2509353,32.1491506 L21.2509353,27.6333007 C21.2876999,26.4170026 20.9940762,25.2133539 20.4009979,24.1491618 C20.3112814,24.010029 20.3112814,23.8316356 20.4009979,23.6925028 C20.4699408,23.5641941 20.5962074,23.4762518 20.7409729,23.4557166 C24.888667,23.0328842 27.2004965,21.3922946 27.2004965,16.9271845 C27.3004838,14.8423741 26.5741266,12.8017927 25.1776457,11.2443171 C25.3813045,10.5864041 25.4900484,9.90305291 25.5006218,9.21472166 C25.4933257,8.5975853 25.4076529,7.98384176 25.2456406,7.38808573 C25.1387571,6.99083019 24.7552554,6.73164789 24.3447071,6.77920708 C22.7872061,6.99916749 21.3373741,7.69679114 20.197013,8.77497599 C18.086025,8.3691496 15.9164724,8.3691496 13.8054844,8.77497599 C12.6651232,7.69679114 11.2152913,6.99916749 9.65779026,6.77920708 C9.24724197,6.73164789 8.86374022,6.99083019 8.75685672,7.38808573 C8.59484445,7.98384176 8.50917163,8.5975853 8.50187552,9.21472166 C8.5124489,9.90305291 8.62119281,10.5864041 8.82485168,11.2443171 C7.42837079,12.8017927 6.70201357,14.8423741 6.80200088,16.9271845 C6.80200088,21.6290807 9.36881159,23.2020172 14.0774643,23.591023 C13.4929522,24.3531281 13.0917145,25.2383566 12.9045508,26.1787573 L12.9045508,26.3817168 C12.896363,26.4604353 12.896363,26.5397845 12.9045508,26.6185029 C12.8338157,27.1502024 12.353322,27.5311711 11.8166311,27.481081 C11.5607239,27.4690963 11.3108492,27.3997144 11.085685,27.2781215 C10.1596097,26.7169107 9.34208598,25.9951489 8.67186296,25.1470462 C8.24483774,24.6652863 7.79081533,24.2078995 7.31196327,23.7770693 C7.0076983,23.5150105 6.670582,23.2932911 6.30903725,23.1174507 C6.05567951,22.9758305 5.74645516,22.9758305 5.49309742,23.1174507 C5.24987923,23.272711 5.10260764,23.5402898 5.10212623,23.8278092 L5.10212623,23.9292889 C5.10260764,24.2168083 5.24987923,24.4843871 5.49309742,24.6396474 C6.10329496,25.1478505 6.63082504,25.7468963 7.05698207,26.4155434 C7.77667542,27.5375988 8.6919769,28.5227589 9.75978274,29.3246303 C10.463322,29.7939131 11.2926228,30.0414527 12.1396072,30.0349887 L12.7515621,30.0349887 L12.7515621,32.1491506 C12.7502443,32.4236461 12.6176965,32.6811291 12.3945884,32.8425958 C12.1714571,32.9969628 11.8893604,33.0406239 11.6296448,32.9609888 C3.38872967,30.2300101 -1.45727807,21.756755 0.392406998,13.312654 C2.24209207,4.86855295 10.1923928,-0.82977385 18.8280812,0.0990032922 C27.4637696,1.02778043 34.0065885,8.28485711 34,16.9271845 Z" id="路径"></path>
            </g>
        </g>
    </g>
</svg>