<?xml version="1.0" encoding="UTF-8"?>
<svg width="575px" height="303px" viewBox="0 0 575 303" version="1.1" xmlns="http://www.w3.org/2000/svg" xmlns:xlink="http://www.w3.org/1999/xlink">
    <title>编组 4</title>
    <defs>
        <filter x="-32.4%" y="-58.6%" width="164.8%" height="217.1%" filterUnits="objectBoundingBox" id="filter-1">
            <feGaussianBlur stdDeviation="22" in="SourceGraphic"></feGaussianBlur>
        </filter>
        <linearGradient x1="1.17176943%" y1="39.1637111%" x2="98.6820123%" y2="39.1656021%" id="linearGradient-2">
            <stop stop-color="#ECF2FB" offset="0%"></stop>
            <stop stop-color="#7DB7FF" offset="50.3221897%"></stop>
            <stop stop-color="#B6D6FF" offset="100%"></stop>
        </linearGradient>
        <path d="M0,-1.325296e-13 L0.88335804,15.7178448 C0.884095841,16.1798931 1.16360683,16.533997 1.72189101,16.7801565 C2.28017519,17.026316 11.2131549,22.5467996 28.5208301,33.3416071 C29.2538411,33.8309728 29.9934922,33.9533142 30.7397832,33.7086313 C31.4860742,33.4639485 40.9937451,27.9432881 59.262796,17.14665 C59.7758132,16.7341332 60.0323218,16.2578648 60.0323218,15.7178448 C60.0323218,15.1778248 60.3265979,9.9385432 60.9151501,-1.325296e-13 L29.5651835,13.9109553 L0,-1.325296e-13 Z" id="path-3"></path>
        <filter x="-16.4%" y="-17.7%" width="139.4%" height="170.9%" filterUnits="objectBoundingBox" id="filter-5">
            <feOffset dx="2" dy="6" in="SourceAlpha" result="shadowOffsetOuter1"></feOffset>
            <feGaussianBlur stdDeviation="3" in="shadowOffsetOuter1" result="shadowBlurOuter1"></feGaussianBlur>
            <feColorMatrix values="0 0 0 0 0.507859025   0 0 0 0 0.703007945   0 0 0 0 0.945180699  0 0 0 1 0" type="matrix" in="shadowBlurOuter1"></feColorMatrix>
        </filter>
        <linearGradient x1="3.6826038%" y1="45.8817323%" x2="100%" y2="46.3413171%" id="linearGradient-6">
            <stop stop-color="#CADEFE" offset="0%"></stop>
            <stop stop-color="#F5F9FF" offset="100%"></stop>
        </linearGradient>
        <linearGradient x1="4.11502487%" y1="49.4256453%" x2="95.0188583%" y2="50%" id="linearGradient-7">
            <stop stop-color="#CADEFE" offset="0%"></stop>
            <stop stop-color="#FFFFFF" offset="100%"></stop>
        </linearGradient>
        <filter x="0.0%" y="0.0%" width="100.0%" height="100.0%" filterUnits="objectBoundingBox" id="filter-8">
            <feGaussianBlur stdDeviation="0" in="SourceGraphic"></feGaussianBlur>
        </filter>
        <linearGradient x1="1.17176943%" y1="39.20308%" x2="98.6820123%" y2="39.2049641%" id="linearGradient-9">
            <stop stop-color="#ECF2FB" offset="0%"></stop>
            <stop stop-color="#7DB7FF" offset="50.3221897%"></stop>
            <stop stop-color="#B6D6FF" offset="100%"></stop>
        </linearGradient>
        <path d="M0,-1.61686112e-13 L1.07965983,19.1757707 C1.08056158,19.7394696 1.42218613,20.1714764 2.10453346,20.471791 C2.78688079,20.7721056 13.7049671,27.5070955 34.8587924,40.6767607 C35.7546947,41.2737868 36.6587126,41.4230433 37.5708461,41.1245302 C38.4829796,40.8260172 50.1034663,34.0908114 72.4323062,20.918913 C73.0593272,20.4156425 73.3728378,19.8345951 73.3728378,19.1757707 C73.3728378,18.5169463 73.7325085,12.1250227 74.4518501,-1.61686112e-13 L36.1352243,16.9713654 L0,-1.61686112e-13 Z" id="path-10"></path>
        <filter x="-13.4%" y="-14.5%" width="132.2%" height="158.1%" filterUnits="objectBoundingBox" id="filter-12">
            <feOffset dx="2" dy="6" in="SourceAlpha" result="shadowOffsetOuter1"></feOffset>
            <feGaussianBlur stdDeviation="3" in="shadowOffsetOuter1" result="shadowBlurOuter1"></feGaussianBlur>
            <feColorMatrix values="0 0 0 0 0.507859025   0 0 0 0 0.703007945   0 0 0 0 0.945180699  0 0 0 1 0" type="matrix" in="shadowBlurOuter1"></feColorMatrix>
        </filter>
        <linearGradient x1="3.6826038%" y1="45.8966942%" x2="100%" y2="46.3546093%" id="linearGradient-13">
            <stop stop-color="#CADEFE" offset="0%"></stop>
            <stop stop-color="#F5F9FF" offset="100%"></stop>
        </linearGradient>
        <linearGradient x1="4.11502487%" y1="49.4216979%" x2="95.0188583%" y2="50%" id="linearGradient-14">
            <stop stop-color="#CADEFE" offset="0%"></stop>
            <stop stop-color="#FFFFFF" offset="100%"></stop>
        </linearGradient>
        <filter x="0.0%" y="0.0%" width="100.0%" height="100.0%" filterUnits="objectBoundingBox" id="filter-15">
            <feGaussianBlur stdDeviation="0" in="SourceGraphic"></feGaussianBlur>
        </filter>
        <linearGradient x1="1.17176943%" y1="39.4807431%" x2="98.6820123%" y2="39.4825788%" id="linearGradient-16">
            <stop stop-color="#ECF2FB" offset="0%"></stop>
            <stop stop-color="#7DB7FF" offset="50.3221897%"></stop>
            <stop stop-color="#B6D6FF" offset="100%"></stop>
        </linearGradient>
        <path d="M0,-1.37830784e-13 L0.932433487,16.3465586 C0.933212277,16.8270889 1.22825166,17.1953569 1.81755162,17.4513628 C2.40685159,17.7073687 11.836108,23.4486716 30.1053207,34.6752714 C30.8790545,35.1842117 31.6597973,35.3114467 32.4475489,35.0569766 C33.2353005,34.8025065 43.2711754,29.0610196 62.5551735,17.832516 C63.0966917,17.4034985 63.3674508,16.9081794 63.3674508,16.3465586 C63.3674508,15.7849378 63.6780755,10.3360849 64.2993251,-1.37830784e-13 L31.2076937,14.4673935 L0,-1.37830784e-13 Z" id="path-17"></path>
        <filter x="-15.6%" y="-17.1%" width="137.3%" height="168.2%" filterUnits="objectBoundingBox" id="filter-19">
            <feOffset dx="2" dy="6" in="SourceAlpha" result="shadowOffsetOuter1"></feOffset>
            <feGaussianBlur stdDeviation="3" in="shadowOffsetOuter1" result="shadowBlurOuter1"></feGaussianBlur>
            <feColorMatrix values="0 0 0 0 0.507859025   0 0 0 0 0.703007945   0 0 0 0 0.945180699  0 0 0 1 0" type="matrix" in="shadowBlurOuter1"></feColorMatrix>
        </filter>
        <linearGradient x1="3.6826038%" y1="46.0022184%" x2="100%" y2="46.4483574%" id="linearGradient-20">
            <stop stop-color="#CADEFE" offset="0%"></stop>
            <stop stop-color="#F5F9FF" offset="100%"></stop>
        </linearGradient>
        <linearGradient x1="4.11502487%" y1="49.424504%" x2="95.0188583%" y2="50%" id="linearGradient-21">
            <stop stop-color="#CADEFE" offset="0%"></stop>
            <stop stop-color="#FFFFFF" offset="100%"></stop>
        </linearGradient>
        <filter x="0.0%" y="0.0%" width="100.0%" height="100.0%" filterUnits="objectBoundingBox" id="filter-22">
            <feGaussianBlur stdDeviation="0" in="SourceGraphic"></feGaussianBlur>
        </filter>
        <linearGradient x1="1.17176943%" y1="39.1637111%" x2="98.6820123%" y2="39.1656021%" id="linearGradient-23">
            <stop stop-color="#ECF2FB" offset="0%"></stop>
            <stop stop-color="#7DB7FF" offset="50.3221897%"></stop>
            <stop stop-color="#B6D6FF" offset="100%"></stop>
        </linearGradient>
        <path d="M0,-1.5903552e-13 L1.06002965,18.8614138 C1.06091501,19.4158718 1.3963282,19.8407965 2.06626922,20.1361879 C2.73621023,20.4315793 13.4557859,27.0561595 34.2249962,40.0099285 C35.1046094,40.5971673 35.9921906,40.743977 36.8877398,40.4503576 C37.783289,40.1567382 49.1924942,33.5319457 71.1153552,20.57598 C71.7309758,20.0809599 72.0387862,19.5094378 72.0387862,18.8614138 C72.0387862,18.2133898 72.3919175,11.9262518 73.0981801,-1.5903552e-13 L35.4782203,16.6931463 L0,-1.5903552e-13 Z" id="path-24"></path>
        <filter x="-13.7%" y="-14.8%" width="132.8%" height="159.1%" filterUnits="objectBoundingBox" id="filter-26">
            <feOffset dx="2" dy="6" in="SourceAlpha" result="shadowOffsetOuter1"></feOffset>
            <feGaussianBlur stdDeviation="3" in="shadowOffsetOuter1" result="shadowBlurOuter1"></feGaussianBlur>
            <feColorMatrix values="0 0 0 0 0.507859025   0 0 0 0 0.703007945   0 0 0 0 0.945180699  0 0 0 1 0" type="matrix" in="shadowBlurOuter1"></feColorMatrix>
        </filter>
        <linearGradient x1="3.6826038%" y1="45.8817323%" x2="100%" y2="46.3413171%" id="linearGradient-27">
            <stop stop-color="#CADEFE" offset="0%"></stop>
            <stop stop-color="#F5F9FF" offset="100%"></stop>
        </linearGradient>
        <linearGradient x1="4.11502487%" y1="49.418398%" x2="95.0188583%" y2="50%" id="linearGradient-28">
            <stop stop-color="#CADEFE" offset="0%"></stop>
            <stop stop-color="#FFFFFF" offset="100%"></stop>
        </linearGradient>
        <filter x="0.0%" y="0.0%" width="100.0%" height="100.0%" filterUnits="objectBoundingBox" id="filter-29">
            <feGaussianBlur stdDeviation="0" in="SourceGraphic"></feGaussianBlur>
        </filter>
        <linearGradient x1="1.17176943%" y1="39.3008422%" x2="98.6820123%" y2="39.3027093%" id="linearGradient-30">
            <stop stop-color="#ECF2FB" offset="0%"></stop>
            <stop stop-color="#7DB7FF" offset="50.3221897%"></stop>
            <stop stop-color="#B6D6FF" offset="100%"></stop>
        </linearGradient>
        <path d="M0,-1.00961078e-13 L0.677241164,11.9738576 C0.677806812,12.3258461 0.892098571,12.5956025 1.32011644,12.7831269 C1.74813431,12.9706512 8.59675209,17.1761568 21.8659698,25.3996435 C22.4279449,25.7724424 22.9950107,25.8656421 23.5671671,25.6792426 C24.1393236,25.4928432 31.4285379,21.2872029 45.4348102,13.0623217 C45.8281234,12.7480663 46.02478,12.3852449 46.02478,11.9738576 C46.02478,11.5624702 46.2503917,7.57118436 46.701615,-1.00961078e-13 L22.6666407,10.5973687 L0,-1.00961078e-13 Z" id="path-31"></path>
        <filter x="-34.3%" y="-46.6%" width="177.1%" height="239.7%" filterUnits="objectBoundingBox" id="filter-33">
            <feOffset dx="2" dy="6" in="SourceAlpha" result="shadowOffsetOuter1"></feOffset>
            <feGaussianBlur stdDeviation="5" in="shadowOffsetOuter1" result="shadowBlurOuter1"></feGaussianBlur>
            <feColorMatrix values="0 0 0 0 0.507859025   0 0 0 0 0.703007945   0 0 0 0 0.945180699  0 0 0 1 0" type="matrix" in="shadowBlurOuter1"></feColorMatrix>
        </filter>
        <linearGradient x1="3.6826038%" y1="45.9338481%" x2="100%" y2="46.3876169%" id="linearGradient-34">
            <stop stop-color="#CADEFE" offset="0%"></stop>
            <stop stop-color="#F5F9FF" offset="100%"></stop>
        </linearGradient>
        <linearGradient x1="4.11502487%" y1="49.4152328%" x2="95.0188583%" y2="50%" id="linearGradient-35">
            <stop stop-color="#CADEFE" offset="0%"></stop>
            <stop stop-color="#FFFFFF" offset="100%"></stop>
        </linearGradient>
        <filter x="0.0%" y="0.0%" width="100.0%" height="100.0%" filterUnits="objectBoundingBox" id="filter-36">
            <feGaussianBlur stdDeviation="0" in="SourceGraphic"></feGaussianBlur>
        </filter>
        <linearGradient x1="53.5582905%" y1="-14.0503088%" x2="90.162911%" y2="83.9250816%" id="linearGradient-37">
            <stop stop-color="#2891E6" offset="0%"></stop>
            <stop stop-color="#A0C2EE" offset="100%"></stop>
        </linearGradient>
        <linearGradient x1="38.648838%" y1="76.7690801%" x2="50.3955705%" y2="8.60020219%" id="linearGradient-38">
            <stop stop-color="#CADEFE" offset="0%"></stop>
            <stop stop-color="#FFFFFF" offset="100%"></stop>
        </linearGradient>
        <filter x="-0.0%" y="0.0%" width="100.0%" height="100.0%" filterUnits="objectBoundingBox" id="filter-39">
            <feGaussianBlur stdDeviation="0" in="SourceGraphic"></feGaussianBlur>
        </filter>
        <linearGradient x1="1.17176943%" y1="17.7704257%" x2="98.6820123%" y2="17.77605%" id="linearGradient-40">
            <stop stop-color="#ECF2FB" offset="0%"></stop>
            <stop stop-color="#7DB7FF" offset="50.3221897%"></stop>
            <stop stop-color="#B6D6FF" offset="100%"></stop>
        </linearGradient>
        <path d="M44.9008743,94.3404422 C44.8793003,94.1464775 44.8577262,93.9309612 44.8577262,93.7154448 C44.8577262,91.3016618 46.8425383,88.1551231 49.2588313,86.689612 C49.3667015,86.6249571 49.4961458,86.5603022 49.604016,86.4956473 C49.9276266,86.3232342 50.2512373,86.1939244 50.5316999,86.1077178 C50.7474403,86.0430629 50.9631808,85.9999597 51.1573472,85.978408 C51.2867914,85.978408 51.4162357,85.9568564 51.5241059,85.9568564 C51.567254,85.9568564 51.6104021,85.9568564 51.6535502,85.9568564 C51.7182723,85.9568564 51.7829945,85.9568564 51.8477166,85.9568564 C52.9479929,83.3491086 55.0406752,80.7629125 57.4353941,79.318953 C57.6079865,79.2111948 57.7590048,79.1249883 57.9315971,79.0387817 C58.4062261,78.7801621 58.859281,78.607749 59.2907619,78.4568876 C59.5927985,78.370681 59.8948352,78.3060261 60.1968718,78.2629229 C60.3694641,78.2413712 60.5636305,78.2198196 60.7362229,78.2198196 C60.800945,78.2198196 60.8440931,78.2198196 60.9088153,78.2198196 C61.1245557,78.2198196 61.3402961,78.2629229 61.5560366,78.3060261 C61.8149251,78.370681 62.0738137,78.4784392 62.2895541,78.607749 L63.8644593,79.5344693 C64.2527921,79.3620562 64.6195509,79.2111948 64.9647356,79.1034366 C65.3530684,78.9956784 65.7198272,78.9094719 66.0865859,78.8663686 C66.3239004,78.844817 66.5396408,78.8232654 66.7553813,78.8232654 C66.8201034,78.8232654 66.9063996,78.8232654 66.9711217,78.8232654 C67.2515843,78.8232654 67.5104728,78.8663686 67.7693614,78.9310235 C68.092972,79.0172301 68.4165827,79.1465399 68.6754712,79.2974013 L71.3938008,80.8922223 C71.1133383,80.7198092 70.8113016,80.612051 70.487691,80.5258445 C70.2288024,80.4611896 69.9699139,80.4180863 69.6894513,80.4180863 C69.6247292,80.4180863 69.538433,80.4180863 69.4737109,80.4180863 C69.2579704,80.4180863 69.04223,80.4180863 68.8049155,80.4611896 C68.4381568,80.5042929 68.071398,80.5904994 67.6830652,80.6982576 C67.1652881,80.849119 66.625937,81.086187 66.0650119,81.3663582 L63.4114044,79.8146406 C63.2603861,79.8146406 63.0877937,79.8146406 62.9152014,79.8577438 C62.6347388,79.9008471 62.3327022,79.965502 62.0090915,80.0517085 C61.5776106,80.1810183 61.1029817,80.3749831 60.6499267,80.6336027 C60.4773344,80.7198092 60.3263161,80.8060158 60.1537237,80.9137739 C57.7590048,82.3577334 55.6663225,84.9439296 54.5660462,87.5516774 C54.5013241,87.5516774 54.4366019,87.5516774 54.3718798,87.5516774 C54.3287317,87.5516774 54.2855836,87.5516774 54.2424355,87.5516774 C54.1129913,87.5516774 54.005121,87.5516774 53.8756768,87.573229 C53.6815104,87.5947806 53.4657699,87.6378839 53.2500295,87.7025388 C52.9479929,87.7887453 52.6459562,87.9180552 52.3223456,88.0904682 C52.2144754,88.1551231 52.0850311,88.219778 51.9771609,88.2844329 C49.5608679,89.7499441 47.5760558,92.8964827 47.5760558,95.3102658 C47.5760558,95.5257821 47.5760558,95.7412985 47.6192039,95.9352632 C45.0734667,98.305943 43.2396729,101.818859 43.2180988,104.620572 C43.2180988,106.17229 43.7574499,107.271423 44.6851339,107.810214 L41.9668043,106.215393 C41.0391204,105.676602 40.4997692,104.577469 40.4997692,103.025751 C40.4997692,100.202487 42.3551371,96.711122 44.9008743,94.3404422 L44.9008743,94.3404422 Z" id="path-41"></path>
        <filter x="-51.8%" y="-40.6%" width="216.5%" height="221.7%" filterUnits="objectBoundingBox" id="filter-42">
            <feOffset dx="2" dy="6" in="SourceAlpha" result="shadowOffsetOuter1"></feOffset>
            <feGaussianBlur stdDeviation="5" in="shadowOffsetOuter1" result="shadowBlurOuter1"></feGaussianBlur>
            <feColorMatrix values="0 0 0 0 0.507859025   0 0 0 0 0.703007945   0 0 0 0 0.945180699  0 0 0 1 0" type="matrix" in="shadowBlurOuter1"></feColorMatrix>
        </filter>
        <linearGradient x1="32.4064538%" y1="49.9868011%" x2="73.6010985%" y2="49.9868011%" id="linearGradient-43">
            <stop stop-color="#FFFFFF" offset="0%"></stop>
            <stop stop-color="#CBE3FF" offset="100%"></stop>
        </linearGradient>
        <linearGradient x1="103.48656%" y1="25.7879451%" x2="6.73729808%" y2="69.5738061%" id="linearGradient-44">
            <stop stop-color="#FFFFFF" offset="0%"></stop>
            <stop stop-color="#CBE3FF" offset="100%"></stop>
        </linearGradient>
        <linearGradient x1="27.1541366%" y1="36.9905799%" x2="86.6460693%" y2="58.8746764%" id="linearGradient-45">
            <stop stop-color="#CBE3FF" offset="0%"></stop>
            <stop stop-color="#699CFF" offset="100%"></stop>
        </linearGradient>
        <linearGradient x1="27.7377274%" y1="38.0883663%" x2="85.7535187%" y2="57.9317842%" id="linearGradient-46">
            <stop stop-color="#CBE3FF" offset="0%"></stop>
            <stop stop-color="#699CFF" offset="100%"></stop>
        </linearGradient>
        <linearGradient x1="27.7377274%" y1="38.0990005%" x2="85.7535187%" y2="57.9317842%" id="linearGradient-47">
            <stop stop-color="#CBE3FF" offset="0%"></stop>
            <stop stop-color="#699CFF" offset="100%"></stop>
        </linearGradient>
        <linearGradient x1="-33.3107651%" y1="50.0141009%" x2="47.9350034%" y2="50.0141009%" id="linearGradient-48">
            <stop stop-color="#FFFFFF" offset="0%"></stop>
            <stop stop-color="#CBE3FF" offset="100%"></stop>
        </linearGradient>
        <linearGradient x1="70.1386577%" y1="58.0084273%" x2="20.8001324%" y2="38.3581196%" id="linearGradient-49">
            <stop stop-color="#FFFFFF" offset="0%"></stop>
            <stop stop-color="#CBE3FF" offset="100%"></stop>
        </linearGradient>
        <linearGradient x1="48.428672%" y1="-14.6619217%" x2="51.857024%" y2="60.2846975%" id="linearGradient-50">
            <stop stop-color="#CBE3FF" offset="0%"></stop>
            <stop stop-color="#699CFF" offset="100%"></stop>
        </linearGradient>
        <linearGradient x1="-0.868704935%" y1="9.80092984%" x2="90.173519%" y2="87.7590577%" id="linearGradient-51">
            <stop stop-color="#FFFFFF" offset="0%"></stop>
            <stop stop-color="#9ABEFF" offset="60.7864719%"></stop>
            <stop stop-color="#C9DDFB" offset="100%"></stop>
        </linearGradient>
        <linearGradient x1="4.88401159%" y1="50%" x2="90.2879869%" y2="50%" id="linearGradient-52">
            <stop stop-color="#E3EDFE" offset="0%"></stop>
            <stop stop-color="#B6D6FF" offset="100%"></stop>
        </linearGradient>
        <path d="M38.3763212,23.2378905 L2.30079225,2.33855075 C1.057322,1.6212334 0.0521215072,2.19658169 0.0521215072,3.62374432 L0,22.9464803 C0,24.3736429 0.997754566,26.1146319 2.23377888,26.8319492 L38.3093078,47.7312889 C39.5453321,48.4486063 40.5579785,47.873258 40.5579785,46.4460954 L40.6101,27.1233594 C40.6101,25.6961968 39.6123455,23.9552078 38.3763212,23.2378905 Z" id="path-53"></path>
        <filter x="-39.4%" y="-26.1%" width="188.6%" height="178.2%" filterUnits="objectBoundingBox" id="filter-54">
            <feOffset dx="2" dy="6" in="SourceAlpha" result="shadowOffsetOuter1"></feOffset>
            <feGaussianBlur stdDeviation="5" in="shadowOffsetOuter1" result="shadowBlurOuter1"></feGaussianBlur>
            <feColorMatrix values="0 0 0 0 0.507859025   0 0 0 0 0.703007945   0 0 0 0 0.945180699  0 0 0 1 0" type="matrix" in="shadowBlurOuter1"></feColorMatrix>
        </filter>
        <linearGradient x1="76.9382883%" y1="1.04247104%" x2="34.9475551%" y2="77.3552124%" id="linearGradient-55">
            <stop stop-color="#CBE3FF" offset="0%"></stop>
            <stop stop-color="#699CFF" offset="100%"></stop>
        </linearGradient>
        <linearGradient x1="17.9796088%" y1="50%" x2="94.2604679%" y2="42.8325481%" id="linearGradient-56">
            <stop stop-color="#F9FBFF" offset="0%"></stop>
            <stop stop-color="#B6D6FF" offset="100%"></stop>
        </linearGradient>
        <linearGradient x1="4.11502487%" y1="49.4958527%" x2="95.0188583%" y2="50%" id="linearGradient-57">
            <stop stop-color="#FFFFFF" offset="0%"></stop>
            <stop stop-color="#CADEFE" offset="100%"></stop>
        </linearGradient>
        <filter x="-0.0%" y="0.0%" width="100.0%" height="100.0%" filterUnits="objectBoundingBox" id="filter-58">
            <feGaussianBlur stdDeviation="0" in="SourceGraphic"></feGaussianBlur>
        </filter>
        <linearGradient x1="86.8657441%" y1="35.814253%" x2="29.4003399%" y2="57.9263421%" id="linearGradient-59">
            <stop stop-color="#CBE3FF" offset="0%"></stop>
            <stop stop-color="#699CFF" offset="100%"></stop>
        </linearGradient>
        <linearGradient x1="73.609111%" y1="1.04247104%" x2="36.8078165%" y2="77.3552124%" id="linearGradient-60">
            <stop stop-color="#CBE3FF" offset="0%"></stop>
            <stop stop-color="#699CFF" offset="100%"></stop>
        </linearGradient>
        <linearGradient x1="52.5%" y1="46.224628%" x2="3.5%" y2="93.1946974%" id="linearGradient-61">
            <stop stop-color="#FFFFFF" offset="0%"></stop>
            <stop stop-color="#FFEDCC" offset="8%"></stop>
            <stop stop-color="#FFDD9C" offset="17%"></stop>
            <stop stop-color="#FFCF72" offset="26%"></stop>
            <stop stop-color="#FFC34F" offset="36%"></stop>
            <stop stop-color="#FFB932" offset="46%"></stop>
            <stop stop-color="#FFB21C" offset="57%"></stop>
            <stop stop-color="#FFAD0C" offset="68%"></stop>
            <stop stop-color="#FFA902" offset="82%"></stop>
            <stop stop-color="#FFA900" offset="100%"></stop>
        </linearGradient>
        <linearGradient x1="83.5%" y1="807.017609%" x2="44.5%" y2="-45.4391837%" id="linearGradient-62">
            <stop stop-color="#36C9FF" offset="2%"></stop>
            <stop stop-color="#339CED" offset="8%"></stop>
            <stop stop-color="#306BDA" offset="15%"></stop>
            <stop stop-color="#2E45CB" offset="21%"></stop>
            <stop stop-color="#2C29C0" offset="27%"></stop>
            <stop stop-color="#2B18BA" offset="33%"></stop>
            <stop stop-color="#2B13B8" offset="37%"></stop>
            <stop stop-color="#3614BB" offset="39%"></stop>
            <stop stop-color="#531AC5" offset="43%"></stop>
            <stop stop-color="#8423D5" offset="49%"></stop>
            <stop stop-color="#C62EEB" offset="56%"></stop>
            <stop stop-color="#FF39FE" offset="61%"></stop>
            <stop stop-color="#FE3EFE" offset="64%"></stop>
            <stop stop-color="#FE4FFE" offset="69%"></stop>
            <stop stop-color="#FE6AFE" offset="73%"></stop>
            <stop stop-color="#FE8FFE" offset="78%"></stop>
            <stop stop-color="#FEB2FF" offset="82%"></stop>
            <stop stop-color="#FEB8FF" offset="84%"></stop>
            <stop stop-color="#FEFFFF" offset="100%"></stop>
        </linearGradient>
        <linearGradient x1="57.5%" y1="44.5035025%" x2="40.5%" y2="55.4964975%" id="linearGradient-63">
            <stop stop-color="#FFFFFF" offset="0%"></stop>
            <stop stop-color="#FFEDCC" offset="8%"></stop>
            <stop stop-color="#FFDD9C" offset="17%"></stop>
            <stop stop-color="#FFCF72" offset="26%"></stop>
            <stop stop-color="#FFC34F" offset="36%"></stop>
            <stop stop-color="#FFB932" offset="46%"></stop>
            <stop stop-color="#FFB21C" offset="57%"></stop>
            <stop stop-color="#FFAD0C" offset="68%"></stop>
            <stop stop-color="#FFA902" offset="82%"></stop>
            <stop stop-color="#FFA900" offset="100%"></stop>
        </linearGradient>
        <linearGradient x1="84.5%" y1="795.524932%" x2="45.5%" y2="-60.9293129%" id="linearGradient-64">
            <stop stop-color="#36C9FF" offset="2%"></stop>
            <stop stop-color="#339CED" offset="8%"></stop>
            <stop stop-color="#306BDA" offset="15%"></stop>
            <stop stop-color="#2E45CB" offset="21%"></stop>
            <stop stop-color="#2C29C0" offset="27%"></stop>
            <stop stop-color="#2B18BA" offset="33%"></stop>
            <stop stop-color="#2B13B8" offset="37%"></stop>
            <stop stop-color="#3614BB" offset="39%"></stop>
            <stop stop-color="#531AC5" offset="43%"></stop>
            <stop stop-color="#8423D5" offset="49%"></stop>
            <stop stop-color="#C62EEB" offset="56%"></stop>
            <stop stop-color="#FF39FE" offset="61%"></stop>
            <stop stop-color="#FE3EFE" offset="64%"></stop>
            <stop stop-color="#FE4FFE" offset="69%"></stop>
            <stop stop-color="#FE6AFE" offset="73%"></stop>
            <stop stop-color="#FE8FFE" offset="78%"></stop>
            <stop stop-color="#FEB2FF" offset="82%"></stop>
            <stop stop-color="#FEB8FF" offset="84%"></stop>
            <stop stop-color="#FEFFFF" offset="100%"></stop>
        </linearGradient>
        <linearGradient x1="-184.5%" y1="-260.801949%" x2="734.5%" y2="957.421767%" id="linearGradient-65">
            <stop stop-color="#36C9FF" offset="2%"></stop>
            <stop stop-color="#339CED" offset="8%"></stop>
            <stop stop-color="#306BDA" offset="15%"></stop>
            <stop stop-color="#2E45CB" offset="21%"></stop>
            <stop stop-color="#2C29C0" offset="27%"></stop>
            <stop stop-color="#2B18BA" offset="33%"></stop>
            <stop stop-color="#2B13B8" offset="37%"></stop>
            <stop stop-color="#3614BB" offset="39%"></stop>
            <stop stop-color="#531AC5" offset="43%"></stop>
            <stop stop-color="#8423D5" offset="49%"></stop>
            <stop stop-color="#C62EEB" offset="56%"></stop>
            <stop stop-color="#FF39FE" offset="61%"></stop>
            <stop stop-color="#FE3EFE" offset="64%"></stop>
            <stop stop-color="#FE4FFE" offset="69%"></stop>
            <stop stop-color="#FE6AFE" offset="73%"></stop>
            <stop stop-color="#FE8FFE" offset="78%"></stop>
            <stop stop-color="#FEB2FF" offset="82%"></stop>
            <stop stop-color="#FEB8FF" offset="84%"></stop>
            <stop stop-color="#FEFFFF" offset="100%"></stop>
        </linearGradient>
        <linearGradient x1="50.6877705%" y1="36.1804996%" x2="46.8507353%" y2="141.579371%" id="linearGradient-66">
            <stop stop-color="#CBE3FF" offset="0%"></stop>
            <stop stop-color="#699CFF" offset="100%"></stop>
        </linearGradient>
        <linearGradient x1="94.1254288%" y1="-3.48211628%" x2="32.1319978%" y2="71.6615165%" id="linearGradient-67">
            <stop stop-color="#CBE3FF" offset="0%"></stop>
            <stop stop-color="#699CFF" offset="100%"></stop>
        </linearGradient>
        <linearGradient x1="72.0890227%" y1="58.0084273%" x2="17.972218%" y2="38.3581196%" id="linearGradient-68">
            <stop stop-color="#FFFFFF" offset="0%"></stop>
            <stop stop-color="#CBE3FF" offset="100%"></stop>
        </linearGradient>
    </defs>
    <g id="页面-1" stroke="none" stroke-width="1" fill="none" fill-rule="evenodd">
        <g id="01Light" transform="translate(-757.000000, -88.000000)">
            <g id="01-2banner图" transform="translate(758.000000, 88.000000)">
                <g id="编组-4" transform="translate(-0.000000, -0.000000)">
                    <path d="M81.6096125,165.576332 C84.9812729,168.080483 124.036265,191.46669 198.774589,235.734955 C202.548503,238.027277 206.850457,238.027277 211.68045,235.734955 C218.92544,232.296471 327.970142,170.32144 331.52791,167.455404 C335.085679,164.589367 336.934333,159.870512 331.52791,156.430111 C327.923629,154.13651 290.042699,131.990444 217.88512,89.9919131 C213.338618,87.1501099 208.529829,87.1501099 203.458753,89.9919131 C198.387677,92.8337164 157.771296,114.979782 81.6096125,156.430111 C78.2379522,160.023441 78.2379522,163.072181 81.6096125,165.576332 Z" id="路径-29" stroke="#4185DD" stroke-width="4" opacity="0.5"></path>
                    <polyline id="路径-40" stroke="#A0C2EE" points="300.894567 184.128795 339.304994 205.285971 376.134118 184.128795 407.807129 203.006832"></polyline>
                    <polygon id="路径-42" fill="#80B9FF" opacity="0.440294538" filter="url(#filter-1)" points="113.85563 169.42514 207.002682 224.231316 308.771877 165.363856 216.172082 111.544776 105.038755 159.114309"></polygon>
                    <path d="M8.296428,169.879135 C13.5119921,173.752764 73.925496,209.928491 189.53694,278.406318 C195.374744,281.952272 202.029363,281.952272 209.500797,278.406318 C220.707949,273.087386 389.387345,177.219263 394.890797,172.78584 C400.394249,168.352417 403.2539,161.0529 394.890797,155.731002 C389.315395,152.18307 330.718028,117.925697 219.098695,52.9588824 C212.065789,48.5629453 204.627154,48.5629453 196.782793,52.9588824 C188.938431,57.3548196 126.109643,91.6121928 8.296428,155.731002 C3.08086391,161.289463 3.08086391,166.005507 8.296428,169.879135 Z" id="路径-29" stroke="#4185DD" stroke-width="10" opacity="0.100000001"></path>
                    <path d="M176.151508,146.874074 C181.367072,150.747702 241.780576,186.92343 357.39202,255.401256 C363.229824,258.94721 369.884443,258.94721 377.355877,255.401256 C388.563029,250.082325 557.242425,154.214201 562.745877,149.780778 C568.249329,145.347356 571.10898,138.047839 562.745877,132.725941 C557.170475,129.178009 498.573108,94.9206355 386.953775,29.953821 C379.920869,25.5578838 372.482235,25.5578838 364.637873,29.953821 C356.793511,34.3497581 293.964723,68.6071314 176.151508,132.725941 C170.935944,138.284401 170.935944,143.000446 176.151508,146.874074 Z" id="路径-29备份-7" stroke="#4185DD" stroke-width="10" opacity="0.100000001"></path>
                    <line x1="296.833557" y1="65.5135858" x2="281.266352" y2="74.2818202" id="路径-41" stroke="#A0C2EE"></line>
                    <path d="M1.13274977,115.495423 C2.6430828,116.617156 20.1377408,127.092992 53.6167238,146.922932 C55.3072462,147.949776 57.2343036,147.949776 59.3978958,146.922932 C62.6432842,145.382666 111.489786,117.620991 113.083486,116.337152 C114.677187,115.053313 115.50529,112.939505 113.083486,111.39838 C111.468951,110.370963 94.5002132,100.450647 62.1772735,81.6374327 C60.1406709,80.3644489 57.986577,80.3644489 55.7149918,81.6374327 C53.4434065,82.9104166 35.2493259,92.8307323 1.13274977,111.39838 C-0.377583257,113.008009 -0.377583257,114.37369 1.13274977,115.495423 Z" id="路径-29" stroke="#4185DD"></path>
                    <path d="M217.224345,247.096208 C218.627363,248.138237 234.878948,257.869719 265.979103,276.290655 C267.549506,277.244537 269.339638,277.244537 271.349497,276.290655 C274.364287,274.859831 319.740031,249.070745 321.220491,247.878129 C322.700952,246.685512 323.470215,244.721899 321.220491,243.290277 C319.720676,242.335863 303.957641,233.120429 273.931388,215.643976 C272.039495,214.461443 270.038459,214.461443 267.92828,215.643976 C265.818101,216.826509 248.916789,226.041943 217.224345,243.290277 C215.821328,244.785536 215.821328,246.054179 217.224345,247.096208 Z" id="路径-29备份-2" stroke="#4185DD"></path>
                    <line x1="241.530086" y1="218.722491" x2="250.91366" y2="223.55313" id="路径-39" stroke="#A0C2EE"></line>
                    <path d="M377.255006,222.140504 C378.749525,223.250491 396.060997,233.616635 429.189422,253.238936 C430.862243,254.255028 432.769122,254.255028 434.91006,253.238936 C438.121466,251.714798 486.456497,224.243815 488.03351,222.973419 C489.610522,221.703023 490.429955,219.611348 488.03351,218.08636 C486.43588,217.069701 469.644822,207.253261 437.660335,188.637039 C435.645057,187.377385 433.513519,187.377385 431.265719,188.637039 C429.01792,189.896694 411.014349,199.713134 377.255006,218.08636 C375.760488,219.679135 375.760488,221.030517 377.255006,222.140504 Z" id="路径-29备份-3" stroke="#4185DD"></path>
                    <path d="M277.279658,53.3718027 C278.438672,54.2326091 291.863895,62.2716596 317.555327,77.4889543 C318.852617,78.2769442 320.331421,78.2769442 321.99174,77.4889543 C324.482218,76.3069695 361.966529,55.0029421 363.189518,54.0177371 C364.412507,53.032532 365.047985,51.4104171 363.189518,50.2277731 C361.95054,49.4393438 348.928902,41.8265942 324.124606,27.3895243 C322.561738,26.4126494 320.908708,26.4126494 319.165517,27.3895243 C317.422325,28.3663992 303.460373,35.9791488 277.279658,50.2277731 C276.120644,51.4629865 276.120644,52.5109964 277.279658,53.3718027 Z" id="路径-29备份-5" stroke="#4185DD"></path>
                    <path d="M30.3855607,262.54666 C32.2362454,263.921174 53.6733023,276.757727 94.6967316,301.056318 C96.7682111,302.314561 99.1295284,302.314561 101.780683,301.056318 C105.757416,299.168955 165.611415,265.151222 167.564254,263.578072 C169.517092,262.004921 170.531807,259.414769 167.564254,257.526353 C165.585885,256.267409 144.793263,244.111563 105.18639,221.058815 C102.690842,219.498965 100.051326,219.498965 97.2678416,221.058815 C94.4843575,222.618664 72.1902639,234.77451 30.3855607,257.526353 C28.5348761,259.498711 28.5348761,261.172146 30.3855607,262.54666 Z" id="路径-29备份-6" stroke="#4185DD"></path>
                    <polyline id="路径-37" stroke="#A0C2EE" points="112.76414 230.997511 123.563796 230.997511 158.443662 212.727218"></polyline>
                    <g id="编组备份-11" transform="translate(25.422721, 82.817850)">
                        <g id="路径-32" transform="translate(0.000000, 16.915486)">
                            <mask id="mask-4" fill="white">
                                <use xlink:href="#path-3"></use>
                            </mask>
                            <g id="蒙版">
                                <use fill="black" fill-opacity="1" filter="url(#filter-5)" xlink:href="#path-3"></use>
                                <use fill="url(#linearGradient-2)" fill-rule="evenodd" xlink:href="#path-3"></use>
                            </g>
                            <path d="M-1.1514236,4.51799891 L28.1250413,22.9790683 C29.3492955,23.5137073 30.4998155,23.5137073 31.5766013,22.9790683 C32.6533871,22.4444292 42.2536778,16.7889376 60.3774736,6.01259363" stroke="url(#linearGradient-6)" stroke-linecap="round" mask="url(#mask-4)"></path>
                        </g>
                        <path d="M0.602082204,18.6301518 C1.40485848,19.2304509 10.7036661,24.8366309 28.4985052,35.4486917 C29.3970562,35.9982109 30.421331,35.9982109 31.5713293,35.4486917 C33.2963269,34.6244128 59.2593511,19.7676569 60.1064388,19.080606 C60.9535266,18.3935551 61.3936823,17.2623434 60.1064388,16.4376048 C59.2482765,15.8877791 50.2290075,10.5788879 33.0486316,0.510931292 C31.9661311,-0.170310431 30.8211813,-0.170310431 29.6137823,0.510931292 C28.4063832,1.19217302 18.7358165,6.50106419 0.602082204,16.4376048 C-0.200694068,17.2990037 -0.200694068,18.0298526 0.602082204,18.6301518 Z" id="路径-29备份" fill="url(#linearGradient-7)" filter="url(#filter-8)"></path>
                    </g>
                    <g id="编组备份-21" transform="translate(61.971811, 224.231316)">
                        <g id="路径-32" transform="translate(0.000000, 21.651823)">
                            <mask id="mask-11" fill="white">
                                <use xlink:href="#path-10"></use>
                            </mask>
                            <g id="蒙版">
                                <use fill="black" fill-opacity="1" filter="url(#filter-12)" xlink:href="#path-10"></use>
                                <use fill="url(#linearGradient-9)" fill-rule="evenodd" xlink:href="#path-10"></use>
                            </g>
                            <path d="M-1.40729551,5.51195867 L34.3750504,28.0344633 C35.8713612,28.6867229 37.2775523,28.6867229 38.5936238,28.0344633 C39.9096953,27.3822036 51.643384,20.4825039 73.7946899,7.33536422" stroke="url(#linearGradient-13)" stroke-linecap="round" mask="url(#mask-11)"></path>
                        </g>
                        <path d="M0.735878249,22.8482994 C1.71704925,23.5845153 13.0822586,30.460019 34.8315064,43.4748106 C35.9297354,44.1487493 37.1816267,44.1487493 38.5871803,43.4748106 C40.6955107,42.4639025 72.4280957,24.2433528 73.4634252,23.4007432 C74.4987547,22.5581336 75.0367228,21.1707985 73.4634252,20.1593267 C72.4145602,19.4850121 61.3910091,12.9741078 40.392772,0.626613849 C39.0697158,-0.208871283 37.6703328,-0.208871283 36.1946228,0.626613849 C34.7189127,1.46209898 22.8993312,7.97300325 0.735878249,20.1593267 C-0.24529275,21.2157592 -0.24529275,22.1120834 0.735878249,22.8482994 Z" id="路径-29备份" fill="url(#linearGradient-14)" filter="url(#filter-15)"></path>
                    </g>
                    <g id="编组备份-22" transform="translate(236.595242, 213.405405)">
                        <g id="路径-32" transform="translate(0.000000, 18.945345)">
                            <mask id="mask-18" fill="white">
                                <use xlink:href="#path-17"></use>
                            </mask>
                            <g id="蒙版">
                                <use fill="black" fill-opacity="1" filter="url(#filter-19)" xlink:href="#path-17"></use>
                                <use fill="url(#linearGradient-16)" fill-rule="evenodd" xlink:href="#path-17"></use>
                            </g>
                            <path d="M-1.21539158,4.69871886 L29.6875436,23.898231 C30.9798119,24.4542556 32.1942497,24.4542556 33.3308569,23.898231 C34.4674641,23.3422064 44.6011044,17.4604951 63.7317777,6.25309737" stroke="url(#linearGradient-20)" stroke-linecap="round" mask="url(#mask-18)"></path>
                        </g>
                        <path d="M0.635531215,19.6846887 C1.48290617,20.318967 11.2983143,26.2424779 30.0817555,37.4552214 C31.030226,38.0358455 32.1114049,38.0358455 33.3252921,37.4552214 C35.1461228,36.5842853 62.5515372,20.8865809 63.4456854,20.1606403 C64.3398336,19.4346997 64.8044424,18.2394571 63.4456854,17.3680353 C62.5398474,16.7870874 53.0195079,11.1776929 34.8846667,0.539851931 C33.7420273,-0.179950644 32.5334692,-0.179950644 31.2589924,0.539851931 C29.9845156,1.25965451 19.7766952,6.86904895 0.635531215,17.3680353 C-0.211843738,18.2781925 -0.211843738,19.0504103 0.635531215,19.6846887 Z" id="路径-29备份" fill="url(#linearGradient-21)" filter="url(#filter-22)"></path>
                    </g>
                    <g id="编组备份-23" transform="translate(394.297797, 185.664007)">
                        <g id="路径-32" transform="translate(0.000000, 20.975203)">
                            <mask id="mask-25" fill="white">
                                <use xlink:href="#path-24"></use>
                            </mask>
                            <g id="蒙版">
                                <use fill="black" fill-opacity="1" filter="url(#filter-26)" xlink:href="#path-24"></use>
                                <use fill="url(#linearGradient-23)" fill-rule="evenodd" xlink:href="#path-24"></use>
                            </g>
                            <path d="M-1.38170832,5.42159869 L33.7500495,27.5748819 C35.2191546,28.2164488 36.5997786,28.2164488 37.8919216,27.5748819 C39.1840645,26.933315 50.7044134,20.1467252 72.4529683,7.21511235" stroke="url(#linearGradient-27)" stroke-linecap="round" mask="url(#mask-25)"></path>
                        </g>
                        <path d="M0.722498644,22.4967871 C1.68583017,23.2216766 12.8443994,29.9914034 34.1982063,42.8059673 C35.2764675,43.4695377 36.5055971,43.4695377 37.8855952,42.8059673 C39.9555923,41.8106117 71.1112213,23.8703781 72.1277266,23.0407318 C73.1442319,22.2110854 73.6724187,20.8450939 72.1277266,19.8491832 C71.0979318,19.1852427 60.2748089,12.7745062 39.6583579,0.616973636 C38.3593574,-0.205657879 36.9854176,-0.205657879 35.5365387,0.616973636 C34.0876598,1.43960515 22.4829798,7.85034166 0.722498644,19.8491832 C-0.240832881,20.8893629 -0.240832881,21.7718975 0.722498644,22.4967871 Z" id="路径-29备份" fill="url(#linearGradient-28)" filter="url(#filter-29)"></path>
                    </g>
                    <g id="编组备份-25" transform="translate(296.833557, 30.041532)">
                        <g id="路径-32" transform="translate(0.000000, 13.532389)">
                            <mask id="mask-32" fill="white">
                                <use xlink:href="#path-31"></use>
                            </mask>
                            <g id="蒙版">
                                <use fill="black" fill-opacity="1" filter="url(#filter-33)" xlink:href="#path-31"></use>
                                <use fill="url(#linearGradient-30)" fill-rule="evenodd" xlink:href="#path-31"></use>
                            </g>
                            <path d="M-0.882758093,3.44181254 L21.5625316,17.5054592 C22.5011266,17.9127473 23.3831919,17.9127473 24.2087277,17.5054592 C25.0342634,17.098171 32.3944863,12.7898163 46.2893964,4.58039512" stroke="url(#linearGradient-34)" stroke-linecap="round" mask="url(#mask-32)"></path>
                        </g>
                        <path d="M0.461596356,14.4120042 C1.07705816,14.8763866 8.20614405,19.2132428 21.848854,27.4225728 C22.5377431,27.8476726 23.3230204,27.8476726 24.2046858,27.4225728 C25.527184,26.7849231 45.4321692,15.291961 46.0816031,14.7604688 C46.731037,14.2289766 47.0684897,13.3538883 46.0816031,12.715883 C45.4236787,12.2905461 38.5089057,8.18366802 25.3372842,0.395248736 C24.5073672,-0.131749579 23.6295724,-0.131749579 22.7038997,0.395248736 C21.7782271,0.92224705 14.364126,5.02912513 0.461596356,12.715883 C-0.153865452,13.3822481 -0.153865452,13.9476219 0.461596356,14.4120042 Z" id="路径-29备份" fill="url(#linearGradient-35)" filter="url(#filter-36)"></path>
                    </g>
                    <polygon id="路径-33" fill="#166BD7" opacity="0.400000006" points="63.6576427 122.102484 63.6576427 126.057587 70.9807348 122.102484 70.9807348 117.716784"></polygon>
                    <polygon id="路径-33备份" fill="#166BD7" opacity="0.400000006" points="74.2415981 115.930476 74.2415981 119.885579 81.5646902 115.930476 81.5646902 111.544776"></polygon>
                    <polyline id="路径-36" stroke="url(#linearGradient-37)" points="67.3191887 122.076104 70.9807348 124.245745 70.9807348 140.532256 88.5013928 151.97134"></polyline>
                    <polyline id="路径-36备份" stroke="url(#linearGradient-37)" points="77.9031441 115.904096 81.5646902 118.678681 81.5646902 134.842167 99.0853482 145.799332"></polyline>
                    <path d="M63.4761265,79.8361922 C64.662699,79.8361922 65.5903829,80.3749831 66.10816,81.3879099 C67.3378805,80.7413608 68.5028789,80.439638 69.516859,80.439638 C71.7821336,80.439638 73.2923167,82.0129073 73.2709709,84.8792747 C73.2491687,89.2327049 69.6678773,94.9223364 65.3099203,97.5731874 L49.5824419,107.120562 C48.3742955,107.853317 47.2308711,108.198143 46.2816131,108.198143 C44.4478194,108.198143 43.2396729,106.926597 43.2609626,104.620572 C43.2609626,101.797308 45.1166147,98.305943 47.662352,95.9352632 C47.6407779,95.7412985 47.6192039,95.5257821 47.6192039,95.3102658 C47.6192039,92.8964827 49.604016,89.7499441 52.020309,88.2844329 C52.8616967,87.7887453 53.6383623,87.5301257 54.2855836,87.5301257 C54.3934538,87.5301257 54.5013241,87.5301257 54.6091943,87.5301257 C55.7094706,84.9223779 57.8021529,82.3361818 60.1968718,80.8922223 C61.4050183,80.1594667 62.5484426,79.8146406 63.4977006,79.8146406 L63.4761265,79.8361922 Z" id="路径" fill="url(#linearGradient-38)" filter="url(#filter-39)"></path>
                    <g id="路径">
                        <use fill="black" fill-opacity="1" filter="url(#filter-42)" xlink:href="#path-41"></use>
                        <use fill="url(#linearGradient-40)" fill-rule="evenodd" xlink:href="#path-41"></use>
                    </g>
                    <path d="M278.78634,47.6537449 L216.861262,71.5752468 C211.557855,73.6147968 202.92682,73.6147968 197.571419,71.5752468 L135.230388,47.6537449 C132.786661,46.7203915 131.434812,45.4759203 131.226835,44.2660178 C131.226835,44.4734296 131.226835,170.089468 131.226835,170.331448 C131.226835,171.783331 132.318713,173.304351 135.230388,174.410548 L198.770365,209.940832 C204.125766,211.980382 212.704807,211.980382 218.060209,209.940832 L278.78634,174.341411 C281.64602,173.235214 282.685904,171.679625 282.685904,170.331448 C282.685904,170.124036 282.685904,44.5771356 282.685904,44.335155 C282.477927,45.5450576 281.178073,46.7549602 278.78634,47.6883136 L278.78634,47.6537449 Z" id="路径" fill="url(#linearGradient-43)" fill-rule="nonzero"></path>
                    <path d="M278.734346,38.240957 C284.089747,41.3054275 284.089747,46.2916848 278.78634,49.4080955 L216.861262,85.3506995 C211.557855,88.4151701 202.92682,88.4151701 197.571419,85.3506995 L135.230388,49.4080955 C129.874986,46.3436249 129.874986,41.3573677 135.178393,38.240957 L197.103471,2.29835293 C202.406878,-0.766117644 211.037913,-0.766117644 216.393315,2.29835293 L278.734346,38.240957 Z" id="路径" fill="url(#linearGradient-44)" fill-rule="nonzero"></path>
                    <path d="M282.685904,44.3179579 C282.477927,46.1358642 281.178073,47.9537705 278.78634,49.3561553 L216.861262,85.2987594 C211.557855,88.3632299 202.92682,88.3632299 197.571419,85.2987594 L135.230388,49.3561553 C132.786661,47.9537705 131.434812,46.083924 131.226835,44.2660178 L131.226835,44.2660178 C131.226835,44.2660178 131.226835,51.6934634 131.226835,51.4857027 L131.226835,51.4857027 C131.434812,53.3555491 132.734666,55.1734554 135.230388,56.5758402 L197.571419,92.5184443 C202.92682,95.5829149 211.505861,95.5829149 216.861262,92.5184443 L278.78634,56.5758402 C281.178073,55.1734554 282.477927,53.3555491 282.685904,51.5376429 C282.685904,51.6934634 282.685904,44.4737785 282.685904,44.3179579 L282.685904,44.3179579 Z" id="路径" fill="url(#linearGradient-45)" fill-rule="nonzero"></path>
                    <path d="M282.685904,84.5715969 C282.477927,86.3895031 281.178073,88.2074094 278.78634,89.6097942 L216.861262,125.552398 C211.557855,128.616869 202.92682,128.616869 197.571419,125.552398 L135.230388,89.6097942 C132.786661,88.2074094 131.434812,86.3375629 131.226835,84.5196567 L131.226835,84.5196567 C131.226835,84.5196567 131.226835,88.3112898 131.226835,88.1554692 L131.226835,88.1554692 C131.434812,90.0253157 132.734666,91.8432219 135.230388,93.2456068 L197.571419,129.188211 C202.92682,132.252681 211.505861,132.252681 216.861262,129.188211 L278.78634,93.2456068 C281.178073,91.8432219 282.477927,90.0253157 282.685904,88.2074094 C282.685904,88.3632299 282.685904,84.7793576 282.685904,84.5715969 Z" id="路径" fill="url(#linearGradient-46)" fill-rule="nonzero" opacity="0.3"></path>
                    <path d="M282.685904,125.708219 C282.477927,127.526125 281.178073,129.344031 278.78634,130.746416 L216.861262,166.68902 C211.557855,169.753491 202.92682,169.753491 197.571419,166.68902 L135.230388,130.746416 C132.786661,129.344031 131.434812,127.474185 131.226835,125.656279 L131.226835,125.656279 C131.226835,125.656279 131.226835,129.447912 131.226835,129.292091 L131.226835,129.292091 C131.434812,131.161938 132.734666,132.979844 135.230388,134.382229 L197.571419,170.324833 C202.92682,173.389303 211.505861,173.389303 216.861262,170.324833 L278.78634,134.382229 C281.178073,132.979844 282.477927,131.161938 282.685904,129.344031 C282.685904,129.499852 282.685904,125.91598 282.685904,125.708219 Z" id="路径" fill="url(#linearGradient-47)" fill-rule="nonzero" opacity="0.3"></path>
                    <path d="M282.685904,166.896781 C282.477927,168.714687 281.178073,170.532594 278.78634,171.934978 L216.861262,207.877582 C211.557855,210.942053 202.92682,210.942053 197.571419,207.877582 L135.230388,171.934978 C132.786661,170.532594 131.434812,168.662747 131.226835,166.844841 L131.226835,166.844841 C131.226835,166.844841 131.226835,170.636474 131.226835,170.480653 L131.226835,170.480653 C131.434812,172.3505 132.734666,174.168406 135.230388,175.570791 L197.571419,211.513395 C202.92682,214.577865 211.505861,214.577865 216.861262,211.513395 L278.78634,175.570791 C281.178073,174.168406 282.477927,172.3505 282.685904,170.532594 C282.685904,170.688414 282.685904,167.104542 282.685904,166.896781 Z" id="路径" fill="url(#linearGradient-47)" fill-rule="nonzero" opacity="0.3"></path>
                    <path d="M282.685904,44.3005864 C282.477927,45.510489 281.178073,46.7203915 278.78634,47.6537449 L216.421221,90.5967211 C213.405558,91.772055 209.350011,92.2214474 205.450447,92.0831728 L205.450447,211.427284 C209.350011,211.565558 213.405558,211.081597 216.421221,209.940832 L278.78634,174.341411 C281.64602,173.235214 282.685904,171.679625 282.685904,170.331448 C282.685904,170.124036 282.685904,44.5425669 282.685904,44.3005864 Z" id="路径" fill="url(#linearGradient-48)" fill-rule="nonzero" opacity="0.5" style="mix-blend-mode: multiply;"></path>
                    <path d="M310.861923,13.4137392 C309.229969,12.4699056 307.912954,13.2135321 307.912954,15.1011994 L307.855693,35.293519 C307.855693,37.1525852 309.172708,39.4406668 310.804661,40.3845004 L329.500547,51.1670847 C331.1325,52.1109183 332.449515,51.3672918 332.449515,49.4796246 L332.506777,29.2873049 C332.506777,27.4282387 331.189762,25.1401571 329.557808,24.1963235 L310.861923,13.4137392 Z" id="路径" fill="url(#linearGradient-49)" fill-rule="nonzero"></path>
                    <path d="M310.203415,13.127729 C310.031631,13.070527 309.859846,13.041926 309.716692,13.013325 C309.716692,13.013325 309.716692,13.013325 309.688061,13.013325 C309.516277,13.013325 309.373123,13.013325 309.201339,13.013325 C309.201339,13.013325 309.201339,13.013325 309.201339,13.013325 C309.058185,13.041926 308.915031,13.099128 308.771877,13.1849311 L312.093045,11.2686628 C312.093045,11.2686628 312.093045,11.2686628 312.093045,11.2686628 C312.150307,11.2686628 312.178938,11.2114607 312.236199,11.1828597 C312.293461,11.1828597 312.350722,11.1542587 312.379353,11.1256577 C312.407984,11.1256577 312.436614,11.1256577 312.493876,11.1256577 C312.493876,11.1256577 312.493876,11.1256577 312.493876,11.1256577 C312.493876,11.1256577 312.493876,11.1256577 312.522507,11.1256577 C312.579768,11.1256577 312.63703,11.1256577 312.694291,11.1256577 C312.751553,11.1256577 312.808814,11.1256577 312.894706,11.1256577 C312.894706,11.1256577 312.951968,11.1256577 312.951968,11.1256577 C312.951968,11.1256577 312.951968,11.1256577 312.980599,11.1256577 C313.00923,11.1256577 313.066491,11.1256577 313.095122,11.1256577 C313.181014,11.1256577 313.266906,11.1542587 313.352799,11.1828597 C313.381429,11.1828597 313.438691,11.1828597 313.467322,11.2114607 C313.495952,11.2114607 313.524583,11.2114607 313.581845,11.2400618 C313.639106,11.2400618 313.667737,11.2400618 313.724999,11.2972638 C313.868152,11.3544658 314.011306,11.4116679 314.125829,11.4974709 L332.821715,22.2800552 C333.02213,22.3944593 333.193915,22.5088634 333.365699,22.6518685 C333.422961,22.7090705 333.480222,22.7662725 333.537484,22.7948736 C333.623376,22.8806766 333.709268,22.9378787 333.795161,23.0236817 C333.823792,23.0522827 333.881053,23.1094848 333.909684,23.1380858 C333.938315,23.1666868 333.966945,23.1952878 333.995576,23.2524899 C334.024207,23.2810909 334.081468,23.3382929 334.110099,23.3668939 C334.195991,23.452697 334.281884,23.5671011 334.339145,23.6529041 C334.339145,23.6815052 334.396407,23.7387072 334.425037,23.7673082 C334.425037,23.7673082 334.425037,23.7959092 334.453668,23.8245102 C334.453668,23.8531113 334.51093,23.8817123 334.53956,23.9389143 C334.596822,24.0247174 334.654084,24.1105204 334.711345,24.1963235 C334.768607,24.2821266 334.825868,24.3679296 334.854499,24.4537327 C334.854499,24.4537327 334.854499,24.4537327 334.854499,24.4537327 C334.854499,24.4537327 334.854499,24.4537327 334.854499,24.4537327 C334.88313,24.5109347 334.940391,24.5967378 334.969022,24.6539398 C335.026283,24.7397429 335.054914,24.8255459 335.083545,24.911349 C335.112176,24.997152 335.140806,25.0543541 335.198068,25.1401571 C335.198068,25.1401571 335.198068,25.1401571 335.198068,25.1401571 C335.198068,25.1401571 335.198068,25.1401571 335.198068,25.1401571 C335.226699,25.2259602 335.28396,25.3117633 335.312591,25.3975663 C335.341222,25.4833694 335.369853,25.5691724 335.398483,25.6835765 C335.398483,25.7407785 335.398483,25.7693796 335.455745,25.8265816 C335.455745,25.8265816 335.455745,25.8551826 335.455745,25.8837836 C335.455745,25.9123847 335.455745,25.9409857 335.484376,25.9981877 C335.513006,26.1125918 335.541637,26.2269959 335.570268,26.3413999 C335.570268,26.398602 335.570268,26.484405 335.598899,26.5416071 C335.598899,26.5702081 335.598899,26.5988091 335.598899,26.6560112 C335.598899,26.6846122 335.598899,26.7132132 335.598899,26.7418142 C335.598899,26.9420214 335.627529,27.1422285 335.627529,27.3138346 L335.570268,47.5061542 C335.570268,48.1925787 335.369853,48.7359981 335.054914,49.1078113 C334.940391,49.2222154 334.825868,49.3366195 334.711345,49.3938215 L331.390177,51.3100898 C331.934161,50.9954786 332.2491,50.3376551 332.2491,49.4224225 L332.306361,29.2301029 C332.306361,29.0012947 332.306361,28.7724866 332.2491,28.5436784 C332.2491,28.5150774 332.2491,28.4864764 332.2491,28.4292744 C332.220469,28.2290672 332.163207,28.0002591 332.105946,27.7714509 C332.105946,27.7714509 332.105946,27.7428499 332.105946,27.7142489 C332.020054,27.4854407 331.962792,27.2566326 331.848269,27.0278244 C331.848269,27.0278244 331.848269,27.0278244 331.848269,27.0278244 C331.733746,26.7990163 331.619223,26.5702081 331.5047,26.3413999 C331.5047,26.3413999 331.5047,26.3413999 331.5047,26.3413999 C331.390177,26.1125918 331.247023,25.9123847 331.103869,25.7121775 C331.103869,25.7121775 331.103869,25.6835765 331.075239,25.6549755 C330.932085,25.4833694 330.788931,25.3117633 330.645777,25.1401571 C330.617146,25.1115561 330.588516,25.0829551 330.559885,25.0257531 C330.445362,24.911349 330.302208,24.7969449 330.187685,24.6825408 C330.130424,24.6253388 330.073162,24.5681368 330.015901,24.5395357 C329.844116,24.3965306 329.643701,24.2535255 329.471916,24.1677225 L310.77603,13.3851382 C310.575615,13.2707341 310.40383,13.1849311 310.232046,13.127729 C310.203415,13.127729 310.174784,13.127729 310.117523,13.099128 L310.203415,13.127729 Z" id="路径" fill="url(#linearGradient-50)" fill-rule="nonzero"></path>
                    <g id="编组-2" transform="translate(246.070932, 197.843157)">
                        <path d="M44.6248427,35.3676184 L44.6248427,25.3407896 C44.6248427,25.3407896 44.6248427,25.2732436 44.6248427,25.235718 C44.6248427,25.1981925 44.6248427,25.1606669 44.6248427,25.1231414 C44.6248427,25.1081311 44.6248427,25.0931209 44.6248427,25.0706056 C44.6248427,25.0706056 44.6248427,25.0555954 44.6248427,25.0480902 C44.6248427,25.03308 44.6248427,25.0255749 44.6248427,25.0105647 C44.6248427,24.9730391 44.6171315,24.9355136 44.6094203,24.897988 C44.6094203,24.8604625 44.601709,24.8229369 44.5939978,24.7854113 C44.5939978,24.7854113 44.5939978,24.7854113 44.5939978,24.7854113 C44.5939978,24.7854113 44.5939978,24.7854113 44.5939978,24.7854113 C44.5939978,24.7478858 44.5785754,24.7103602 44.5785754,24.6803398 C44.5785754,24.6428142 44.5631529,24.6052887 44.5554417,24.560258 C44.5554417,24.5452478 44.5554417,24.5302376 44.5477305,24.5227324 C44.5477305,24.5152273 44.5477305,24.5077222 44.5477305,24.5002171 C44.5477305,24.4852069 44.5400193,24.4626916 44.532308,24.4476813 C44.5245968,24.4101558 44.5091744,24.3651251 44.5014632,24.3275995 C44.4937519,24.2975791 44.4860407,24.2675587 44.4783295,24.2375382 C44.4783295,24.2375382 44.4783295,24.2300331 44.4783295,24.222528 C44.4783295,24.222528 44.4783295,24.2150229 44.4783295,24.2075178 C44.462907,24.1699922 44.4551958,24.1324667 44.4397734,24.087436 C44.4243509,24.0499104 44.4166397,24.0123849 44.4012173,23.9748593 C44.4012173,23.9748593 44.4012173,23.9598491 44.393506,23.952344 C44.393506,23.952344 44.393506,23.9448389 44.393506,23.9373338 C44.3857948,23.9148184 44.3780836,23.884798 44.3626612,23.8622826 C44.3472387,23.8247571 44.3318163,23.7872315 44.3163938,23.749706 C44.3086826,23.7271906 44.2932602,23.6971702 44.2855489,23.6746549 C44.2855489,23.6746549 44.2855489,23.6671497 44.2855489,23.6596446 C44.2855489,23.6596446 44.2855489,23.6521395 44.2855489,23.6446344 C44.2701265,23.6071089 44.254704,23.5695833 44.2315704,23.5320577 C44.2161479,23.4945322 44.1930143,23.4495015 44.1698806,23.411976 C44.1698806,23.411976 44.1698806,23.3969657 44.1621694,23.3969657 C44.1621694,23.3894606 44.1544582,23.3819555 44.1467469,23.3744504 C44.1313245,23.34443 44.115902,23.3144095 44.0927684,23.276884 C44.0696347,23.2393584 44.046501,23.2018328 44.0233674,23.1643073 C44.0079449,23.141792 44.0002337,23.1267817 43.9848113,23.1042664 C43.9848113,23.0967613 43.9771,23.0892562 43.9693888,23.0817511 C43.9462552,23.0517306 43.9231215,23.0142051 43.9076991,22.9841846 C43.8768542,22.9391539 43.8460093,22.8866182 43.8151644,22.8415875 C43.8151644,22.8340824 43.8074532,22.8265773 43.7997419,22.8190722 C43.7534746,22.7515262 43.7072073,22.6839802 43.6532287,22.6164342 C43.6532287,22.6164342 43.6532287,22.6164342 43.6532287,22.6164342 L43.6532287,22.6164342 C43.6223838,22.5714035 43.5838277,22.5263728 43.5529828,22.4813422 C43.5221379,22.4438166 43.4990043,22.4137962 43.4681594,22.3762706 C43.4681594,22.3762706 43.4681594,22.3762706 43.4681594,22.3762706 C43.4681594,22.3762706 43.4681594,22.3762706 43.4681594,22.3762706 C43.4373145,22.338745 43.4064696,22.3087246 43.3756247,22.271199 C43.3447798,22.2411786 43.3139349,22.203653 43.2830901,22.1736326 C43.2830901,22.1736326 43.2753788,22.1661275 43.2676676,22.1586224 C43.2676676,22.1586224 43.2599564,22.1511173 43.2522452,22.1436121 C43.2291115,22.1210968 43.2059778,22.0985815 43.1905554,22.0760661 C43.1597105,22.0460457 43.1288656,22.0160253 43.0903095,21.9784997 C43.0825983,21.9709946 43.0671758,21.9634895 43.0594646,21.9484792 C43.0594646,21.9484792 43.0440422,21.933469 43.0363309,21.9259639 C43.0209085,21.9109537 43.0054861,21.8959435 42.9900636,21.8809332 C42.9592187,21.8509128 42.9206626,21.8208924 42.8898177,21.7908719 C42.8743953,21.7758617 42.8589728,21.7683566 42.8435504,21.7533464 C42.8358392,21.7533464 42.8281279,21.7383361 42.8204167,21.7383361 C42.8127055,21.730831 42.7972831,21.7233259 42.7895718,21.7083157 C42.7587269,21.6858004 42.7201708,21.6557799 42.6893259,21.6332646 C42.6661923,21.6182544 42.6430586,21.595739 42.6122137,21.5807288 C42.6122137,21.5807288 42.6045025,21.5807288 42.5967913,21.5732237 C42.5967913,21.5732237 42.5890801,21.5732237 42.5813688,21.5657186 C42.5505239,21.5432032 42.5119678,21.5206879 42.4811229,21.5056777 C42.4502781,21.4831623 42.4194332,21.4681521 42.3808771,21.4456368 C42.3808771,21.4456368 42.3654546,21.4381317 42.3577434,21.4306266 L8.09678328,2.18001594 L8.09678328,2.18001594 L6.22295629,1.12179524 L5.00458319,0.438830107 L5.00458319,0.438830107 C5.00458319,0.438830107 4.98144952,0.431324995 4.98144952,0.431324995 C4.98144952,0.431324995 4.9737383,0.431324995 4.96602708,0.431324995 C4.95060463,0.431324995 4.93518219,0.416314773 4.92747097,0.408809661 C4.9043373,0.393799439 4.88120364,0.386294327 4.85806997,0.371284105 C2.66808287,-0.746977487 0,0.79157034 0,3.23823664 L39.6896605,47.6009499 C41.9027813,48.8467983 44.67111,47.2932403 44.67111,44.8015433 L44.67111,35.3751235 L44.67111,35.3751235 L44.6248427,35.3676184 Z" id="路径" fill="url(#linearGradient-51)" fill-rule="nonzero"></path>
                        <g id="路径">
                            <use fill="black" fill-opacity="1" filter="url(#filter-54)" xlink:href="#path-53"></use>
                            <use fill="url(#linearGradient-52)" fill-rule="evenodd" xlink:href="#path-53"></use>
                        </g>
                        <polygon id="路径" fill="url(#linearGradient-55)" fill-rule="nonzero" points="3.384175 26.049849 35.19542 44.656884 35.19542 25.1371907 3.384175 7.44281401"></polygon>
                    </g>
                    <g id="编组-18" transform="translate(70.770666, 200.549635)">
                        <path d="M21.5467262,29.3818502 L1.70665976,40.4790489 C1.31071152,40.698493 0.376693729,41.1156579 0.772641967,41.335102 L36.0648283,61.291611 C36.724742,61.6659569 37.543035,61.6659569 38.2029488,61.291611 L58.3699124,50.6679326 C59.0562226,50.2806782 59.0562226,49.3254507 58.3699124,48.9381963 L23.8036312,29.3947587 C23.1041226,28.9945959 22.2462348,28.9945959 21.5467262,29.3947587 L21.5467262,29.3818502 Z" id="路径" fill="#80ADFF" fill-rule="nonzero"></path>
                        <path d="M21.65872,1.0740788 L21.65872,25.6990695 C21.65872,26.3780194 22.0349261,27.0047424 22.639543,27.3442174 L58.0432199,47.2296155 C58.7150164,47.6082606 59.5614801,47.1382184 59.5614801,46.3809281 L59.5614801,21.9387316 C59.5614801,21.0378173 59.0643506,20.2021866 58.2716307,19.7582579 L23.3382113,0.147051048 C22.5992352,-0.270764277 21.65872,0.25150488 21.65872,1.08713553 L21.65872,1.0740788 Z" id="路径" fill="#0079FC" fill-rule="nonzero"></path>
                        <path d="M21.65872,1.08713553 L21.65872,25.6990695 C21.65872,26.3780194 22.0349261,27.0047424 22.639543,27.3442174 L58.0432199,47.2296155 C58.7150164,47.6082606 59.5614801,47.1382184 59.5614801,46.3809281 L59.5614801,21.9387316 C59.5614801,21.0378173 59.0643506,20.2021866 58.2716307,19.7582579 L23.3382113,0.147051048 C22.5992352,-0.270764277 21.65872,0.25150488 21.65872,1.08713553 L21.65872,1.08713553 Z" id="路径" fill="url(#linearGradient-56)"></path>
                        <path d="M21.2426473,28.6998539 L0.299379621,40.0493272 C-0.0997932071,40.2646632 -0.0997932071,40.8220034 0.299379621,41.0373394 L35.8789844,60.6202476 C36.5442724,60.9875854 37.3692296,60.9875854 38.0345177,60.6202476 L58.3657204,49.5874448 C59.05762,49.2074402 59.05762,48.2700953 58.3657204,47.8900906 L23.5179325,28.7125208 C22.8127271,28.3198492 21.9478527,28.3198492 21.2426473,28.7125208 L21.2426473,28.6998539 Z" id="路径" fill="url(#linearGradient-57)" filter="url(#filter-58)"></path>
                        <polygon id="路径" fill="url(#linearGradient-59)" fill-rule="nonzero" points="31.811245 48.7884542 21.8171698 43.3036451 14.213535 47.2915085 24.2076102 52.7763175"></polygon>
                        <polygon id="路径" fill="url(#linearGradient-60)" fill-rule="nonzero" points="23.689225 3.38309728 56.1773051 21.4363528 56.1773051 43.9802646 23.7225639 25.9726532"></polygon>
                        <path d="M10.946345,35.4794955 L21.8779457,29.1432276 C21.9819324,29.0784396 22.1119157,29.0784396 22.2159024,29.1432276 L56.0895663,48.7610387 C56.2065513,48.8258267 56.2065513,48.9942756 56.0895663,49.0590636 L45.0409806,55.4342043 C44.9369939,55.4989923 44.8070106,55.4989923 44.7030239,55.4342043 L10.946345,35.8811812 C10.790365,35.790478 10.790365,35.5701987 10.946345,35.4794955 Z" id="路径" fill="#79A8FF" fill-rule="nonzero"></path>
                        <path d="M13.7254138,37.1704934 L10.82936,35.4446578 L12.3481793,34.5488042 L15.2442331,36.2746398 L13.7254138,37.1704934 Z M17.3293919,37.5130257 L15.5016601,36.4327316 L13.9828408,37.3285853 L15.8105725,38.4088793 L17.3293919,37.5130257 Z M19.427422,38.7645859 L17.5996902,37.6842918 L16.0808709,38.5801455 L17.9086026,39.6604395 L19.427422,38.7645859 Z M21.525452,40.0161461 L19.6977203,38.935852 L18.178901,39.8317057 L20.0066327,40.9119997 L21.525452,40.0161461 Z M23.6234821,41.2677063 L21.7957504,40.1874122 L20.2769311,41.0832659 L22.1046628,42.1635599 L23.6234821,41.2677063 Z M25.7215122,42.5192665 L23.8937805,41.4389724 L22.3749612,42.3348261 L24.2026929,43.4151201 L25.7215122,42.5192665 Z M27.8195423,43.7708267 L25.9918106,42.6905326 L24.4729912,43.5863863 L26.300723,44.6666803 L27.8195423,43.7708267 Z M23.3531838,30.1749306 L21.525452,29.0946366 L20.0066327,29.9904902 L21.8343644,31.0707843 L23.3531838,30.1749306 Z M25.4512139,31.4264908 L23.6234821,30.3461968 L22.1046628,31.2420504 L23.9323945,32.3223445 L25.4512139,31.4264908 Z M27.5492439,32.678051 L25.7215122,31.597757 L24.2026929,32.4936106 L26.0304246,33.5739047 L27.5492439,32.678051 Z M29.647274,33.9296112 L27.8195423,32.8493172 L26.300723,33.7451708 L28.1284547,34.8254649 L29.647274,33.9296112 Z M31.7453041,35.1811714 L29.9175724,34.1008774 L28.3987531,34.996731 L30.2264848,36.0770251 L31.7453041,35.1811714 Z M33.8433342,36.4327316 L32.0156025,35.3524376 L30.4967831,36.2482912 L32.3245149,37.3285853 L33.8433342,36.4327316 Z M35.9413643,37.6842918 L34.1136326,36.6039978 L32.5948132,37.4998514 L34.422545,38.5801455 L35.9413643,37.6842918 Z M38.0393944,38.935852 L36.2116626,37.855558 L34.6928433,38.7514116 L36.520575,39.8317057 L38.0393944,38.935852 Z M40.1374245,40.1874122 L38.3096927,39.1071182 L36.7908734,40.0029718 L38.6186051,41.0832659 L40.1374245,40.1874122 Z M42.2354545,41.4389724 L40.4077228,40.3586784 L38.8889035,41.254532 L40.7166352,42.3348261 L42.2354545,41.4389724 Z M44.3334846,42.6905326 L42.5057529,41.6102386 L40.9869336,42.5060922 L42.8146653,43.5863863 L44.3334846,42.6905326 Z M46.4315147,43.9420928 L44.603783,42.8617988 L43.0849637,43.7576524 L44.9126954,44.8379465 L46.4315147,43.9420928 Z M48.5295448,45.193653 L46.7018131,44.113359 L45.1829937,45.0092126 L47.0107255,46.0895067 L48.5295448,45.193653 Z M50.6275749,46.4452132 L48.7998432,45.3649192 L47.2810238,46.2607728 L49.1087556,47.3410669 L50.6275749,46.4452132 Z M52.725605,47.6967735 L50.8978732,46.6164794 L49.3790539,47.512333 L51.2067856,48.5926271 L52.725605,47.6967735 Z M54.8236351,48.9483337 L52.9959033,47.8680396 L51.477084,48.7638932 L53.3048157,49.8441873 L54.8236351,48.9483337 Z M22.5551601,31.9402892 L19.6591063,30.2144536 L18.1402869,31.1103072 L21.0363407,32.8361429 L22.5551601,31.9402892 Z M24.6403188,33.1786751 L22.8125871,32.0983811 L21.2937677,32.9942347 L23.1214995,34.0745287 L24.6403188,33.1786751 Z M26.7383489,34.4302353 L24.9106171,33.3499413 L23.3917978,34.2457949 L25.2195296,35.3260889 L26.7383489,34.4302353 Z M28.836379,35.6817955 L27.0086472,34.6015015 L25.4898279,35.4973551 L27.3175596,36.5776491 L28.836379,35.6817955 Z M30.9344091,36.9333557 L29.1066773,35.8530617 L27.587858,36.7489153 L29.4155897,37.8292093 L30.9344091,36.9333557 Z M33.0324391,38.1849159 L31.2047074,37.1046219 L29.6858881,38.0004755 L31.5136198,39.0807695 L33.0324391,38.1849159 Z M35.1304692,39.4364761 L33.3027375,38.3561821 L31.7839182,39.2520357 L33.6116499,40.3323297 L35.1304692,39.4364761 Z M37.2284993,40.6880363 L35.4007676,39.6077423 L33.8819483,40.5035959 L35.70968,41.5838899 L37.2284993,40.6880363 Z M39.3265294,41.9395965 L37.4987977,40.8593025 L35.9799783,41.7551561 L37.8077101,42.8354501 L39.3265294,41.9395965 Z M41.4245595,43.1911567 L39.5968277,42.1108627 L38.0780084,43.0067163 L39.9057402,44.0870103 L41.4245595,43.1911567 Z M45.6206197,45.6942771 L43.7928879,44.6139831 L42.2740686,45.5098367 L44.1018003,46.5901307 L45.6206197,45.6942771 Z M49.8166798,48.1973975 L47.9889481,47.1171035 L46.4701288,48.0129571 L48.2978605,49.0932511 L49.8166798,48.1973975 Z M52.9572893,50.0681507 L50.1127209,48.3686637 L48.5939016,49.2645173 L51.4384699,50.9640043 L52.9572893,50.0681507 Z M43.5097182,44.4558912 L41.6819865,43.3755972 L40.1631672,44.2714508 L41.9908989,45.3517449 L43.5097182,44.4558912 Z M47.7057784,46.9590116 L45.8780467,45.8787176 L44.3592273,46.7745712 L46.1869591,47.8548653 L47.7057784,46.9590116 Z M19.5947495,32.4540876 L17.7670178,31.3737936 L16.2481985,32.2696472 L18.0759302,33.3499413 L19.5947495,32.4540876 Z M21.6927796,33.7056478 L19.8650479,32.6253538 L18.3462285,33.5212074 L20.1739603,34.6015015 L21.6927796,33.7056478 Z M23.7908097,34.957208 L21.9630779,33.876914 L20.4442586,34.7727676 L22.2719904,35.8530617 L23.7908097,34.957208 Z M25.8888398,36.2087682 L24.061108,35.1284742 L22.5422887,36.0243278 L24.3700204,37.1046219 L25.8888398,36.2087682 Z M27.9868699,37.4603284 L26.1591381,36.3800344 L24.6403188,37.275888 L26.4680505,38.3561821 L27.9868699,37.4603284 Z M30.0848999,38.7118886 L28.2571682,37.6315946 L26.7383489,38.5274482 L28.5660806,39.6077423 L30.0848999,38.7118886 Z M32.18293,39.9634488 L30.3551983,38.8831548 L28.836379,39.7790084 L30.6641107,40.8593025 L32.18293,39.9634488 Z M34.2809601,41.215009 L32.4532284,40.134715 L30.9344091,41.0305686 L32.7621408,42.1108627 L34.2809601,41.215009 Z M36.3789902,42.4665692 L34.5512585,41.3862752 L33.0324391,42.2821288 L34.8601709,43.3624229 L36.3789902,42.4665692 Z M38.4770203,43.7181294 L36.6492885,42.6378354 L35.1304692,43.533689 L36.958201,44.6139831 L38.4770203,43.7181294 Z M40.5750504,44.9696896 L38.7473186,43.8893956 L37.2284993,44.7852492 L39.056231,45.8655433 L40.5750504,44.9696896 Z M42.6730805,46.2212498 L40.8453487,45.1409558 L39.3265294,46.0368094 L41.1542611,47.1171035 L42.6730805,46.2212498 Z M44.7711105,47.47281 L42.9433788,46.392516 L41.4245595,47.2883696 L43.2522912,48.3686637 L44.7711105,47.47281 Z M46.8691406,48.7243702 L45.0414089,47.6440762 L43.5225896,48.5399298 L45.3503213,49.6202239 L46.8691406,48.7243702 Z M48.9671707,49.9759304 L47.139439,48.8956364 L45.6206197,49.79149 L47.4483514,50.8717841 L48.9671707,49.9759304 Z M51.0652008,51.2274906 L49.2374691,50.1471966 L47.7186497,51.0430502 L49.5463815,52.1233443 L51.0652008,51.2274906 Z M18.7967258,34.2194462 L15.900672,32.4936106 L14.3818527,33.3894642 L17.2779065,35.1152999 L18.7967258,34.2194462 Z M20.8818845,35.4578321 L19.0541528,34.3775381 L17.5353335,35.2733917 L19.3630652,36.3536857 L20.8818845,35.4578321 Z M22.9799146,36.7093923 L21.1521829,35.6290983 L19.6333636,36.5249519 L21.4610953,37.6052459 L22.9799146,36.7093923 Z M25.0779447,37.9609525 L23.250213,36.8806585 L21.7313936,37.7765121 L23.5591254,38.8568061 L25.0779447,37.9609525 Z M27.1759748,39.2125127 L25.3482431,38.1322187 L23.8294237,39.0280723 L25.6571555,40.1083663 L27.1759748,39.2125127 Z M29.2740049,40.4640729 L27.4462731,39.3837789 L25.9274538,40.2796325 L27.7551855,41.3599265 L29.2740049,40.4640729 Z M31.372035,41.7156331 L29.5443032,40.6353391 L28.0254839,41.5311927 L29.8532156,42.6114867 L31.372035,41.7156331 Z M33.470065,42.9671933 L31.6423333,41.8868993 L30.123514,42.7827529 L31.9512457,43.8630469 L33.470065,42.9671933 Z M35.5680951,44.2187535 L33.7403634,43.1384595 L32.2215441,44.0343131 L34.0492758,45.1146071 L35.5680951,44.2187535 Z M37.6661252,45.4703137 L35.8383935,44.3900197 L34.3195742,45.2858733 L36.1473059,46.3661673 L37.6661252,45.4703137 Z M41.8621854,47.9734341 L40.0344537,46.8931401 L38.5156343,47.7889937 L40.3433661,48.8692877 L41.8621854,47.9734341 Z M46.0582456,50.4765545 L44.2305138,49.3962605 L42.7116945,50.2921141 L44.5394262,51.3724081 L46.0582456,50.4765545 Z M49.198855,52.3473077 L46.3542866,50.6478207 L44.8354673,51.5436743 L47.6800357,53.2431613 L49.198855,52.3473077 Z M39.751284,46.7350482 L37.9235522,45.6547542 L36.4047329,46.5506078 L38.2324646,47.6309019 L39.751284,46.7350482 Z M43.9473441,49.2381686 L42.1196124,48.1578746 L40.6007931,49.0537282 L42.4285248,50.1340223 L43.9473441,49.2381686 Z M15.8363152,34.7332446 L14.0085835,33.6529506 L12.4897642,34.5488042 L14.3174959,35.6290983 L15.8363152,34.7332446 Z M17.9343453,35.9848048 L16.1066136,34.9045108 L14.5877943,35.8003644 L16.415526,36.8806585 L17.9343453,35.9848048 Z M20.0323754,37.236365 L18.2046437,36.156071 L16.6858244,37.0519246 L18.5135561,38.1322187 L20.0323754,37.236365 Z M22.1304055,38.4879252 L20.3026738,37.4076312 L18.7838544,38.3034848 L20.6115862,39.3837789 L22.1304055,38.4879252 Z M24.2284356,39.7394854 L22.4007039,38.6591914 L20.8818845,39.555045 L22.7096163,40.6353391 L24.2284356,39.7394854 Z M26.3264657,40.9910456 L24.4987339,39.9107516 L22.9799146,40.8066052 L24.8076463,41.8868993 L26.3264657,40.9910456 Z M28.4244958,42.2426058 L26.596764,41.1623118 L25.0779447,42.0581654 L26.9056764,43.1384595 L28.4244958,42.2426058 Z M30.5225258,43.494166 L28.6947941,42.413872 L27.1759748,43.3097256 L29.0037065,44.3900197 L30.5225258,43.494166 Z M32.6205559,44.7457262 L30.7928242,43.6654322 L29.2740049,44.5612858 L31.1017366,45.6415799 L32.6205559,44.7457262 Z M34.718586,45.9972864 L32.8908543,44.9169924 L31.372035,45.812846 L33.1997667,46.8931401 L34.718586,45.9972864 Z M36.8166161,47.2488466 L34.9888844,46.1685526 L33.470065,47.0644062 L35.2977968,48.1447003 L36.8166161,47.2488466 Z M38.9146462,48.5004068 L37.0869145,47.4201128 L35.5680951,48.3159664 L37.3958269,49.3962605 L38.9146462,48.5004068 Z M41.0126763,49.751967 L39.1849445,48.671673 L37.6661252,49.5675266 L39.4938569,50.6478207 L41.0126763,49.751967 Z M29.7373735,45.2200017 L27.9096418,44.1397076 L26.3908224,45.0355612 L28.2185542,46.1158553 L29.7373735,45.2200017 Z M31.8354036,46.4715619 L30.0076718,45.3912678 L28.4888525,46.2871214 L30.3165842,47.3674155 L31.8354036,46.4715619 Z M33.9334337,47.7231221 L32.1057019,46.642828 L30.5868826,47.5386816 L32.4146143,48.6189757 L33.9334337,47.7231221 Z M38.1294938,50.2262425 L36.3017621,49.1459484 L34.7829428,50.041802 L36.6106745,51.1220961 L38.1294938,50.2262425 Z M42.7245659,52.9533263 L40.5106936,51.6490688 L38.9918743,52.5449224 L41.2057465,53.8491799 L42.7245659,52.9533263 Z M45.4532921,54.5869417 L43.1235777,53.2036383 L41.6047584,54.0994919 L43.9344728,55.4827953 L45.4532921,54.5869417 Z M45.7750759,52.610794 L43.4453615,51.2274906 L41.9265421,52.1233443 L44.2562565,53.5066476 L45.7750759,52.610794 Z M36.0314637,48.9878566 L34.203732,47.9075625 L32.6849127,48.8034162 L34.5126444,49.8837102 L36.0314637,48.9878566 Z M40.2275239,51.490977 L38.3997922,50.4106829 L36.8809729,51.3065366 L38.7087046,52.3868306 L40.2275239,51.490977 Z" id="形状" fill="#FFFFFF" fill-rule="nonzero"></path>
                        <polygon id="路径" fill="#76A5FF" fill-rule="nonzero" style="mix-blend-mode: multiply;" points="21.8171698 43.4483219 31.6840939 49.3932202 31.811245 49.3274581 21.8171698 43.3036451 14.213535 47.6834043 14.3406861 47.7623189"></polygon>
                        <polyline id="路径" points="27.0734 38.9326835 28.42707 38.1884021 28.42707 38.1884021 27.0734 38.9462158 27.0734 38.9326835"></polyline>
                        <path d="M18.2677767,28.4074919 C18.2677767,28.4074919 18.2677767,28.3939595 18.2813134,28.4074919 C18.2813134,28.4074919 18.2813134,28.4210243 18.2677767,28.4345567 L18.2677767,28.4345567 L18.2677767,28.4074919 Z" id="路径" fill="url(#linearGradient-61)" fill-rule="nonzero"></path>
                        <path d="M18.2880817,28.3909523 C18.2880817,28.3909523 18.274545,28.4315495 18.2610083,28.4450819 C18.2610083,28.4450819 18.2610083,28.4315495 18.2610083,28.4180171 C18.274545,28.4044847 18.274545,28.3909523 18.2880817,28.3909523 L18.2880817,28.3909523 Z" id="路径" fill="#F4F4F4" fill-rule="nonzero"></path>
                        <path d="M23.737562,29.7055014 L19.1887594,26.8096625 C18.2372907,26.2057908 17.4031263,26.2744126 16.920875,26.8645599 C17.4161601,26.3430344 18.2242568,26.288137 19.1235903,26.8645599 L23.6723929,29.7603989 C25.171282,30.7073794 26.3834271,32.971898 26.3703933,34.7972373 L26.3703933,38.9694413 C26.3703933,39.0517874 26.3573594,39.1204092 26.3443256,39.2027553 L26.3964609,39.2439284 C26.3964609,39.1341336 26.3964609,39.0243387 26.3964609,38.9145439 L26.3964609,34.7423399 C26.4094947,32.9170006 25.1973496,30.652482 23.6984605,29.7055014 L23.737562,29.7055014 Z" id="路径" fill="#F4F4F4" fill-rule="nonzero"></path>
                        <path d="M18.274545,33.3708715 L18.274545,33.3708715 C18.274545,33.3708715 18.274545,33.0460942 18.274545,33.0460942 L18.274545,32.9378351 C18.274545,32.9378351 18.274545,33.005497 18.274545,33.0460942 L18.274545,33.3708715 Z" id="路径"></path>
                        <path d="M18.2677767,28.3977185 C18.2677767,28.3977185 18.2677767,28.3977185 18.2677767,28.4112509 L18.2677767,28.4112509 L18.2677767,28.4383157 C18.2677767,28.4383157 18.2677767,28.4247833 18.2813134,28.4112509 L18.2813134,28.4112509 L18.2677767,28.3977185 Z" id="路径" fill="url(#linearGradient-62)" fill-rule="nonzero"></path>
                        <path d="M18.2677767,28.3977185 C18.2677767,28.3977185 18.2677767,28.3977185 18.2677767,28.4112509 L18.2677767,28.4112509 L18.2677767,28.4383157 C18.2677767,28.4383157 18.2677767,28.4247833 18.2813134,28.4112509 L18.2813134,28.4112509 L18.2677767,28.3977185 Z" id="路径" fill="url(#linearGradient-63)" fill-rule="nonzero"></path>
                        <path d="M18.2677767,29.7847884 L18.2677767,29.7847884 C18.2677767,29.7847884 18.2677767,29.771256 18.2813134,29.7577236 C18.2813134,29.7577236 18.2677767,29.7847884 18.2677767,29.7847884 Z" id="路径" fill="url(#linearGradient-64)" fill-rule="nonzero"></path>
                        <path d="M18.2677767,29.7847884 L18.2677767,29.7847884 C18.2677767,29.7847884 18.2677767,29.771256 18.2813134,29.7577236 C18.2813134,29.7577236 18.2677767,29.7847884 18.2677767,29.7847884 Z" id="路径" fill="url(#linearGradient-65)" fill-rule="nonzero"></path>
                        <path d="M18.25424,29.5885688 C18.25424,29.5885688 18.2407033,29.6156336 18.2407033,29.6426983 L18.2407033,30.1298643 C18.2677767,29.7374251 18.2813134,29.4667773 18.3083868,29.4126477 C18.2813134,29.4667773 18.25424,29.5209068 18.25424,29.5885688 L18.25424,29.5885688 Z" id="路径" fill="#F4F4F4" fill-rule="nonzero"></path>
                        <path d="M18.3083868,32.7733443 C18.3083868,32.7733443 18.3083868,32.6945148 18.3083868,32.6682384 C18.3083868,32.6419619 18.3083868,32.6025471 18.3083868,32.5762707 C18.3083868,32.5499942 18.3083868,32.5237177 18.3219235,32.5105795 L18.3219235,32.484303 L18.3219235,32.484303 L18.3219235,29.0946366 C18.25424,30.1851106 18.2271666,32.6682384 18.2271666,32.865312 L18.2271666,33.1543533 C18.2271666,33.1543533 18.2813134,33.1280768 18.2813134,33.1280768 L18.2813134,32.812759 L18.3083868,32.7733443 Z" id="路径" fill="#F4F4F4" fill-rule="nonzero"></path>
                        <path d="M18.274545,32.4980324 C18.274545,32.4980324 18.274545,32.4709677 18.274545,32.4574353 L18.274545,32.4574353 L18.274545,32.4980324 Z" id="路径" fill="#F4F4F4" fill-rule="nonzero"></path>
                    </g>
                    <g id="编组" transform="translate(407.807129, 169.335674)" fill-rule="nonzero">
                        <g>
                            <path d="M20.8504886,0.424829159 C20.8504886,0.424829159 20.9165022,0.424829159 20.9495089,0.392149993 C21.24657,0.294112495 21.5436311,0.228754163 21.8406921,0.16339583 C22.1377532,0.0980374983 22.4348142,0.0653583322 22.7648821,0.0326791661 C23.0949499,0.0326791661 23.392011,0 23.7220788,0 C24.0521466,0 24.3822145,0 24.7452891,0.0653583322 C25.1083637,0.0980374983 25.4714383,0.16339583 25.834513,0.261433329 C26.2305944,0.359470827 26.6266758,0.457508325 27.0227572,0.620904156 C27.4848522,0.784299986 27.7978891,1.03419847 28.2599841,1.26295263 C28.8541062,1.55706512 29.5972863,1.8300333 30.1914084,2.22218329 C30.8845509,2.67969162 31.5776934,3.20255828 32.2708358,3.79078327 C33.9871886,5.26134574 35.5385074,7.02602071 36.9247924,9.01944984 C37.4198941,9.73839149 37.8819891,10.4900123 38.3440841,11.2416331 C38.7071587,11.8625373 39.0372265,12.4507623 39.3672944,13.1043456 C39.6313486,13.6598914 39.9284097,14.2154372 40.1594572,14.7709831 C40.3905047,15.2938497 40.6215522,15.8167164 40.8195929,16.339583 C41.0176336,16.8624497 41.2156743,17.3526372 41.3807082,17.8755039 C41.5457421,18.3656913 41.6777692,19.2142782 41.8428032,19.7044657 C42.0078371,20.1946532 42.1398642,20.7175199 42.2718913,21.2077073 C42.4039185,21.730574 42.5689524,21.8950413 42.6679728,22.4179079 C42.7999999,22.9407746 42.8990202,23.4636413 42.9980406,23.9865079 C43.0970609,24.5420537 43.1960813,25.0649204 43.2620949,25.6204662 C43.3281084,26.2086912 43.394122,26.7969162 43.4601356,27.352462 C43.5261491,28.0060453 43.5261491,28.9853489 43.5261491,29.6389322 C43.5261491,30.4232322 43.0640542,32.0189459 42.9980406,32.7705667 C42.932027,33.8816584 42.265493,35.0598998 41.8428032,35.950297 C39.730369,40.4001454 30.6364725,44.2138403 27.3688009,45.3576111 L22.7148444,46.9588902 C25.982516,45.8477986 28.4910316,42.579882 29.5142419,37.4819321 C29.7122826,36.4361987 29.8443097,35.3577863 29.9103233,34.2793738 C29.9433301,33.527753 29.9763368,32.743453 29.9433301,31.959153 C29.9433301,31.3055697 29.9103233,30.6519863 29.8443097,29.998403 C29.8113029,29.410178 29.7452894,28.821953 29.646269,28.2664072 C29.5802554,27.7108614 29.4812351,27.1879947 29.3822147,26.6324489 C29.2831944,26.1095823 29.184174,25.5867156 29.0521469,25.0638489 C28.9531265,24.5409823 28.8210994,24.0507948 28.6890723,23.5279281 C28.5570451,23.0377406 28.425018,22.514874 28.2599841,22.0246865 C28.0949502,21.5018198 27.9299162,21.0116323 27.7648823,20.5214449 C27.5668416,19.9985782 27.4018077,19.5083907 27.203767,18.985524 C27.0057263,18.4626574 26.7746788,17.9397907 26.5436313,17.4169241 C26.279577,16.8613783 26.0155228,16.3058324 25.7514685,15.7502866 C25.4214007,15.1293825 25.0913328,14.5084783 24.7282582,13.8875741 C24.2661632,13.1359533 23.8040682,12.3843325 23.3089665,11.6653908 C21.9226816,9.67196171 20.3713627,7.87460758 18.65501,6.43672427 C17.9618675,5.84849928 17.268725,5.32563262 16.5755826,4.8681243 C15.9814605,4.47597431 15.3873384,4.11650348 14.7932162,3.85507015 C14.3311213,3.62631599 13.8690263,3.43024099 13.4069313,3.26684516 C13.0108499,3.1361285 12.6147685,3.00541183 12.2186871,2.90737433 C11.8556125,2.80933684 11.4925379,2.7439785 11.1294632,2.71129934 C10.7993954,2.67862017 10.4363208,2.64594101 10.1062529,2.64594101 C9.77618509,2.64594101 9.44611725,2.64594101 9.1490562,2.67862017 C8.85199514,2.67862017 8.5219273,2.7439785 8.22486625,2.80933684 C7.92780519,2.87469517 7.63074414,2.9400535 7.33368308,3.038091 C7.3006763,3.038091 7.26766951,3.038091 7.23466273,3.07077016 L20.8174818,0.424829159 L20.8504886,0.424829159 Z" id="路径" fill="url(#linearGradient-66)"></path>
                            <path d="M18.6880167,6.43672427 C10.6673683,-0.458579773 2.51469263,2.28647018 0.46827203,12.5477283 C-1.57814857,22.8089865 3.27384866,36.7303112 11.2944971,43.6256153 C19.3151456,50.5209193 27.4678213,47.7758694 29.5142419,37.5146112 C31.5606625,27.2533531 26.7086652,13.3320283 18.65501,6.43672427 L18.6880167,6.43672427 Z" id="路径" fill="url(#linearGradient-67)"></path>
                            <path d="M0.46827203,12.5477283 C-1.57814857,22.8089865 3.27384866,36.7303112 11.2944971,43.6256153 C19.3151456,50.5209193 27.4678213,47.7758694 29.5142419,37.5146112 C31.5606625,27.2533531 26.7086652,13.3320283 18.65501,6.43672427 C10.6343615,-0.458579773 2.48168585,2.28647018 0.435265246,12.5477283 L0.46827203,12.5477283 Z M2.34965871,14.1816866 C4.13202504,5.22759513 11.2284836,2.87469517 18.192915,8.85498256 C25.1903532,14.8679491 29.4152215,26.9592406 27.6328552,35.9133321 C25.8504889,44.8347444 18.7540303,47.2203235 11.7895989,41.2400362 C4.8251675,35.2270696 0.600299165,23.1357781 2.34965871,14.1816866 Z" id="形状" fill="url(#linearGradient-68)"></path>
                        </g>
                    </g>
                    <g id="编组-3" transform="translate(414.602847, 182.280910)" fill="#FFFFFF" fill-rule="nonzero">
                        <path d="M6.46777588,20.0676332 C5.04819685,19.0143708 3.62861782,17.1053326 2.56393355,14.6696633 C0.434565008,9.8641534 0.434565008,4.59784122 2.56393355,2.95211867 C3.62861782,2.16217184 5.0988961,2.42548745 6.51847513,3.47874989 C6.51847513,3.47874989 6.61987363,3.47874989 6.61987363,3.54457879 C5.65658786,3.14960537 4.69330209,3.14960537 3.93281333,3.74206549 C1.75274553,5.32195915 1.75274553,10.5882713 3.93281333,15.4596101 C4.94679835,17.8294506 6.31567812,19.6068309 7.73525715,20.7259223 C7.32966314,20.5284356 6.92406913,20.3309488 6.51847513,20.0018043 M6.81930447,2.52436711 C6.5041872,2.32917908 6.18906992,2.13399104 5.87395265,1.93880301 C4.45592491,1.15805088 3.09041672,1.15805088 1.98750625,1.93880301 C1.67238898,2.19905372 1.40979125,2.45930443 1.19971307,2.78461782 C-0.165795126,4.60637279 -0.375873309,8.05469471 0.621998062,11.7632673 C0.937115337,12.9994582 1.40979125,14.3007118 1.98750625,15.6019653 C3.3004949,18.3996605 5.03363991,20.6117915 6.76678493,21.8479824 C8.49992994,23.0841733 10.233075,23.4094866 11.5460636,22.4335465 C13.2266891,21.2624183 13.8569236,18.3996605 13.3842477,15.0164012 C13.12165,13.0645209 12.543935,10.9174525 11.5460636,8.83544684 C10.233075,6.0377517 8.49992994,3.82562066 6.76678493,2.58942979" id="形状" opacity="0.2"></path>
                        <path d="M7.92558319,22.2117764 C6.14470569,21.0041629 4.3638282,18.9067289 3.01467858,16.1101502 C2.42105274,14.9025366 1.93535888,13.6313645 1.61156297,12.3601924 C0.640175249,8.73735179 0.802073203,5.36874563 2.20518881,3.58910464 C2.42105274,3.27131161 2.74484865,3.01707718 3.01467858,2.76284275 C4.14796426,2.00013947 5.55107986,2.06369808 7.00816145,2.76284275 C7.33195736,2.88995997 7.65575326,3.08063579 7.97954917,3.33487021 C9.76042667,4.54248374 11.5413042,6.63991776 12.8904538,9.43649646 C13.8618415,11.4703719 14.5094333,13.5678059 14.7792632,15.4745641 C15.2649571,18.7796117 14.5633993,21.5761903 12.8904538,22.7202453 C11.5413042,23.6100658 9.76042667,23.3558313 7.97954917,22.1482178 M7.9273584,0.942492368 C5.97424111,-0.161473311 4.02112383,-0.356290784 2.52756355,0.682735738 C1.83822803,1.13730984 1.26378177,1.78670142 0.861669391,2.63091047 C0.344667756,3.66993699 0.0574446261,4.90378098 0,6.33244245 C0,6.33244245 0,6.52725992 0,6.52725992 C0,6.91689487 0,7.24159066 0,7.6312256 C0,8.02086055 0,8.41049549 0.114889252,8.80013044 C0.114889252,9.18976539 0.229778504,9.57940033 0.28722313,10.0339744 C0.344667756,10.4236094 0.459557009,10.8132443 0.517001635,11.1379401 C0.574446261,11.4626359 0.689335513,11.7873317 0.746780139,12.1120275 L0.919114017,12.6964799 C1.03400327,13.0861148 1.20633715,13.5406889 1.37867103,13.9303239 L1.60844953,14.5147763 L1.83822803,15.0992287 C2.01056191,15.5538028 2.18289579,15.9434378 2.4126743,16.3980119 L2.69989743,16.9175251 L3.04456518,17.5669167 L3.44667756,18.2163083 C3.44667756,18.2163083 3.73390069,18.7358216 3.73390069,18.7358216 L4.13601308,19.320274 L4.48068083,19.7748481 L4.82534859,20.2294222 L5.05512709,20.4891788 C5.05512709,20.4891788 5.39979485,20.9437529 5.39979485,20.9437529 L5.57212873,21.1385704 L5.85935186,21.398327 C5.85935186,21.398327 6.26146424,21.8529011 6.43379812,22.0477186 C6.43379812,22.0477186 6.77846588,22.4373535 6.95079975,22.5672319 L7.00824438,22.5672319 C7.00824438,22.5672319 7.12313363,22.7620493 7.12313363,22.7620493 C7.35291214,22.9568668 7.58269064,23.0867451 7.81246915,23.2815626 C8.04224765,23.4763801 8.32947078,23.6062584 8.55924928,23.8010758 C8.78902779,23.9309542 9.07625092,24.0608325 9.30602942,24.25565 C9.53580793,24.3855283 9.82303106,24.5154066 10.0528096,24.5803457 C10.2825881,24.7102241 10.5698112,24.7751632 10.7995897,24.8401024 C11.7761483,25.099859 12.6952624,25.099859 13.5569318,24.8401024 C13.8441549,24.7102241 14.131378,24.5803457 14.4186011,24.4504674 C14.7058243,24.25565 14.9356028,23.9958933 15.1653813,23.8010758 C17.7503895,21.1385704 17.4631663,14.7095938 14.4186011,8.73519128 C12.752707,5.4882334 10.7421451,2.76078878 8.61669391,1.39706647 C8.61669391,1.39706647 8.1571369,1.07237068 7.9273584,0.942492368 Z" id="形状"></path>
                    </g>
                    <ellipse id="椭圆形" fill="#FFFFFF" transform="translate(417.648604, 179.574432) rotate(-19.000000) translate(-417.648604, -179.574432) " cx="417.648604" cy="179.574432" rx="1.01521823" ry="1.3532846"></ellipse>
                </g>
            </g>
        </g>
    </g>
</svg>