<?xml version="1.0" encoding="UTF-8"?>
<svg width="40px" height="32px" viewBox="0 0 40 32" version="1.1" xmlns="http://www.w3.org/2000/svg" xmlns:xlink="http://www.w3.org/1999/xlink">
    <title>01-8微信公众号</title>
    <g id="页面-1" stroke="none" stroke-width="1" fill="none" fill-rule="evenodd">
        <g id="01Light" transform="translate(-607.000000, -919.000000)">
            <rect fill="#FFFFFF" x="0" y="0" width="1440" height="1081"></rect>
            <rect id="矩形" fill="#F3F4F7" x="0" y="794" width="1440" height="250"></rect>
            <rect id="矩形备份-6" fill="#FFFFFF" x="575" y="891" width="289" height="90" rx="16"></rect>
            <g id="01-8微信公众号" transform="translate(607.000000, 919.000000)" fill="#666666" fill-rule="nonzero">
                <path d="M11.194853,7.65467628 C11.194853,7.13029579 11.0340074,6.70823344 10.7123162,6.38848922 C10.3906251,6.068745 9.96599272,5.90887292 9.43841917,5.90887292 C8.88511034,5.90887292 8.39613976,6.07194247 7.97150742,6.39808157 C7.54687509,6.72422067 7.33455889,7.14308557 7.33455889,7.65467628 C7.33455889,8.15347723 7.54687507,8.56594725 7.97150742,8.89208635 C8.39613978,9.21822545 8.88511036,9.381295 9.43841917,9.381295 C9.96599269,9.381295 10.390625,9.22462034 10.7123162,8.91127102 C11.0340074,8.5979217 11.194853,8.1790568 11.194853,7.65467631 L11.194853,7.65467628 Z M25.5358457,17.381295 C25.5358457,17.0231815 25.3717832,16.7034373 25.0436581,16.4220623 C24.7155331,16.1406874 24.2941177,16 23.7794118,16 C23.4319854,16 23.1135111,16.1438849 22.8239891,16.4316547 C22.534467,16.7194245 22.389706,17.0359712 22.389706,17.3812949 C22.389706,17.7394084 22.534467,18.0623501 22.8239891,18.3501199 C23.1135111,18.6378897 23.4319854,18.7817746 23.7794118,18.7817746 C24.2941177,18.7817746 24.7155332,18.6410871 25.0436581,18.3597122 C25.3717831,18.0783373 25.5358457,17.7521982 25.5358457,17.3812949 L25.5358457,17.381295 Z M20.9806986,7.65467628 C20.9806986,7.13029579 20.8230699,6.70823344 20.5078126,6.38848922 C20.1925552,6.068745 19.7711398,5.90887292 19.2435663,5.90887292 C18.6902574,5.90887292 18.2012868,6.07194247 17.7766545,6.39808157 C17.3520222,6.72422067 17.139706,7.14308557 17.139706,7.65467628 C17.139706,8.15347723 17.3520222,8.56594725 17.7766545,8.89208635 C18.2012869,9.21822545 18.6902574,9.381295 19.2435663,9.381295 C19.7711398,9.381295 20.1925552,9.22462034 20.5078126,8.91127102 C20.8230699,8.5979217 20.9806986,8.1790568 20.9806986,7.65467631 L20.9806986,7.65467628 Z M33.2371324,17.381295 C33.2371324,17.0231815 33.069853,16.7034373 32.7352942,16.4220623 C32.4007354,16.1406874 31.9825368,16 31.4806986,16 C31.1332721,16 30.8147979,16.1438849 30.5252758,16.4316547 C30.2357538,16.7194245 30.0909927,17.0359712 30.0909927,17.3812949 C30.0909927,17.7394084 30.2357538,18.0623501 30.5252758,18.3501199 C30.8147979,18.6378897 31.1332721,18.7817746 31.4806986,18.7817746 C31.9825368,18.7817746 32.4007354,18.6410871 32.7352942,18.3597122 C33.069853,18.0783373 33.2371324,17.7521982 33.2371324,17.3812949 L33.2371324,17.381295 Z M28.1029413,9.76498803 C27.7040442,9.71382896 27.2536765,9.68824943 26.7518383,9.68824943 C24.5772059,9.68824943 22.5762868,10.1806555 20.7490809,11.1654677 C18.9218751,12.1502798 17.4839155,13.4836131 16.4352023,15.1654676 C15.386489,16.8473221 14.8621324,18.6858513 14.8621324,20.6810551 C14.8621324,21.6786571 15.0101103,22.6506795 15.3060662,23.5971223 C14.8556986,23.6354916 14.4181986,23.6546763 13.9935662,23.6546763 C13.6590074,23.6546763 13.3373162,23.6450839 13.0284927,23.6258993 C12.7196691,23.6067146 12.3658088,23.5651479 11.9669118,23.501199 C11.5680147,23.4372502 11.2817096,23.392486 11.1079964,23.3669065 C10.9342831,23.3413269 10.5836397,23.2741806 10.0560662,23.1654676 C9.5284927,23.0567546 9.20680152,22.9896083 9.09099268,22.9640288 L4.2077206,25.4004796 L5.59742648,21.2182254 C1.86580883,18.6219025 0,15.4884093 0,11.8177458 C0,9.65627499 0.627297797,7.66746603 1.88189339,5.85131896 C3.13648899,4.03517188 4.8350184,2.60591529 6.97748163,1.56354917 C9.11994487,0.521183057 11.4586397,0 13.9935662,0 C16.2582721,0 18.3975184,0.422062352 20.4113052,1.26618706 C22.4250919,2.11031176 24.1107537,3.2773781 25.4682905,4.76738608 C26.8258273,6.25739406 27.7040442,7.92326136 28.1029413,9.764988 L28.1029413,9.76498803 Z M39.5294118,20.527578 C39.5294118,22.0239808 39.0886949,23.4532374 38.2072611,24.8153477 C37.3258273,26.177458 36.132353,27.4148681 34.6268383,28.527578 L35.6884192,32 L31.8474265,29.9088729 C29.9172795,30.3820943 28.5147059,30.618705 27.6397059,30.618705 C25.4650736,30.618705 23.4641544,30.1678657 21.6369485,29.2661871 C19.8097427,28.3645084 18.3717831,27.1398881 17.3230699,25.5923262 C16.2743566,24.0447642 15.75,22.3565148 15.75,20.527578 C15.75,18.6986411 16.2743566,17.0103917 17.3230699,15.4628298 C18.3717831,13.9152678 19.8097427,12.6906475 21.6369485,11.7889689 C23.4641544,10.8872902 25.4650736,10.4364509 27.6397059,10.4364509 C29.7113971,10.4364509 31.6608456,10.8872902 33.4880515,11.7889689 C35.3152574,12.6906475 36.7789522,13.9184653 37.8791361,15.4724221 C38.9793199,17.026379 39.5294118,18.7114309 39.5294118,20.527578 L39.5294118,20.527578 Z" id="形状"></path>
            </g>
        </g>
    </g>
</svg>