<?xml version="1.0" encoding="UTF-8"?>
<svg width="34px" height="28px" viewBox="0 0 34 28" version="1.1" xmlns="http://www.w3.org/2000/svg" xmlns:xlink="http://www.w3.org/1999/xlink">
    <title>01-9邮箱</title>
    <g id="页面-1" stroke="none" stroke-width="1" fill="none" fill-rule="evenodd">
        <g id="01Light" transform="translate(-961.000000, -922.000000)">
            <rect fill="#FFFFFF" x="0" y="0" width="1440" height="1081"></rect>
            <rect id="矩形" fill="#F3F4F7" x="0" y="794" width="1440" height="250"></rect>
            <rect id="矩形备份-7" fill="#FFFFFF" x="929" y="891" width="289" height="90" rx="16"></rect>
            <g id="01-9邮箱" transform="translate(961.000000, 922.000000)" fill="#666666" fill-rule="nonzero">
                <path d="M33.9684224,4.32690125 L16.7767016,14.3155505 L0.013533236,4.57207719 C0.175932068,2.02043133 2.28260581,0 4.85843174,0 L29.1415683,0 C31.6361948,0 33.6932466,1.88876277 33.9684224,4.32690125 L33.9684224,4.32690125 Z M34,7.9046538 L34,23.1101022 C34,25.8115778 31.8256601,28 29.1415683,28 L4.85843174,28 C2.17433992,28 0,25.8115778 0,23.1101022 L0,8.16345062 L16.0098182,17.4665153 C16.5601698,17.784336 17.2232984,17.7253121 17.7014727,17.3711691 C17.7240281,17.3620885 17.7420724,17.3484677 17.7646278,17.3348468 L34,7.9046538 Z" id="形状"></path>
            </g>
        </g>
    </g>
</svg>