<?xml version="1.0" encoding="UTF-8"?>
<svg width="140px" height="96px" viewBox="0 0 140 96" version="1.1" xmlns="http://www.w3.org/2000/svg" xmlns:xlink="http://www.w3.org/1999/xlink">
    <title>01-3算力多样化</title>
    <defs>
        <radialGradient cx="49.9999992%" cy="2.46779994%" fx="49.9999992%" fy="2.46779994%" r="70.7456856%" gradientTransform="translate(0.500000,0.024678),scale(0.500000,1.000000),rotate(92.002987),translate(-0.500000,-0.024678)" id="radialGradient-1">
            <stop stop-color="#0052D9" stop-opacity="0.15156181" offset="0%"></stop>
            <stop stop-color="#0052D9" stop-opacity="0" offset="100%"></stop>
        </radialGradient>
        <linearGradient x1="50%" y1="100%" x2="50%" y2="-18.05053%" id="linearGradient-2">
            <stop stop-color="#E2EDFF" offset="0%"></stop>
            <stop stop-color="#5E9BFF" offset="100%"></stop>
        </linearGradient>
        <linearGradient x1="50%" y1="100%" x2="50%" y2="-18.05053%" id="linearGradient-3">
            <stop stop-color="#5E9BFF" offset="0%"></stop>
            <stop stop-color="#E2EDFF" offset="100%"></stop>
        </linearGradient>
        <linearGradient x1="-51.778096%" y1="52.395212%" x2="87.29296%" y2="46.5546297%" id="linearGradient-4">
            <stop stop-color="#91BBFF" offset="0%"></stop>
            <stop stop-color="#CCDFFF" offset="100%"></stop>
        </linearGradient>
        <linearGradient x1="5.803174%" y1="57.1689203%" x2="113.57058%" y2="40.39852%" id="linearGradient-5">
            <stop stop-color="#6FA5FF" offset="0%"></stop>
            <stop stop-color="#BED6FF" offset="100%"></stop>
        </linearGradient>
        <linearGradient x1="50%" y1="100%" x2="50%" y2="-18.05053%" id="linearGradient-6">
            <stop stop-color="#E2EDFF" offset="0%"></stop>
            <stop stop-color="#5E9BFF" offset="100%"></stop>
        </linearGradient>
        <linearGradient x1="50%" y1="100%" x2="50%" y2="-18.05053%" id="linearGradient-7">
            <stop stop-color="#5E9BFF" offset="0%"></stop>
            <stop stop-color="#E2EDFF" offset="100%"></stop>
        </linearGradient>
        <linearGradient x1="-51.778096%" y1="52.8832029%" x2="87.29296%" y2="45.8526842%" id="linearGradient-8">
            <stop stop-color="#91BBFF" offset="0%"></stop>
            <stop stop-color="#CCDFFF" offset="100%"></stop>
        </linearGradient>
        <linearGradient x1="5.803174%" y1="58.8014685%" x2="113.57058%" y2="38.2120131%" id="linearGradient-9">
            <stop stop-color="#6FA5FF" offset="0%"></stop>
            <stop stop-color="#BED6FF" offset="100%"></stop>
        </linearGradient>
    </defs>
    <g id="页面-1" stroke="none" stroke-width="1" fill="none" fill-rule="evenodd">
        <g id="01Light" transform="translate(-275.000000, -567.000000)">
            <rect fill="#FFFFFF" x="0" y="0" width="1440" height="1081"></rect>
            <rect id="矩形" x="220" y="0" width="1000" height="903"></rect>
            <rect id="矩形" fill="#FFFFFF" x="220" y="541" width="250" height="288"></rect>
            <g id="01-3算力多样化" opacity="0.900000036" transform="translate(275.000000, 567.000000)">
                <g id="编组" transform="translate(0.000000, 25.932605)" fill="url(#radialGradient-1)" fill-rule="nonzero">
                    <polygon id="椭圆形" points="140 35 139.961724 36.1591398 139.846896 37.3107527 139.658845 38.4548387 139.395906 39.5939068 139.05808 40.7292115 138.643701 41.8594982 138.057913 43.1867384 137.370611 44.5026882 136.58013 45.8073477 135.681478 47.1044803 134.671326 48.394086 133.594608 49.6272401 132.416375 50.8453405 131.1333 52.0496416 129.742054 53.2401434 128.239308 54.4181004 126.69995 55.5270609 125.059078 56.6134409 123.315027 57.6797491 121.462806 58.7247312 119.497421 59.7483871 117.512065 60.7030466 115.455151 61.6163082 113.325012 62.490681 111.119987 63.3261649 108.836745 64.1189964 106.543518 64.8516129 104.193709 65.5403226 101.785655 66.183871 99.3176901 66.7822581 96.7881511 67.3354839 94.2586121 67.8310036 91.689133 68.2775986 89.0763854 68.6752688 86.4203694 69.0227599 83.7194209 69.3213262 81.0267931 69.5634409 78.3075387 69.7528674 75.5649859 69.8896057 72.7958063 69.971147 70 70 67.2041937 69.971147 64.4350141 69.8896057 61.6924613 69.7528674 58.9732069 69.5634409 56.2805791 69.3213262 53.5796306 69.0227599 50.9236146 68.6752688 48.310867 68.2775986 45.7413879 67.8310036 43.2118489 67.3354839 40.6823099 66.7822581 38.2143451 66.183871 35.8062906 65.5403226 33.4564819 64.8516129 31.1632551 64.1189964 28.8800133 63.3261649 26.6749875 62.490681 24.5448494 61.6163082 22.4879348 60.7030466 20.5025795 59.7483871 18.5371942 58.7247312 16.6849725 57.6797491 14.940922 56.6134409 13.3000499 55.5270609 11.7606923 54.4181004 10.2579464 53.2401434 8.86669995 52.0496416 7.58362456 50.8453405 6.40539191 49.6272401 5.32867366 48.394086 4.31852222 47.1044803 3.41987019 45.8073477 2.62938925 44.5026882 1.94208687 43.1867384 1.35629889 41.8594982 0.941920453 40.7292115 0.604093859 39.5939068 0.341154934 38.4548387 0.153103678 37.3107527 0.0382759195 36.1591398 0 35 0.0382759195 33.8408602 0.153103678 32.6892473 0.341154934 31.5451613 0.604093859 30.4060932 0.941920453 29.2707885 1.35629889 28.1405018 1.94208687 26.8132616 2.62938925 25.4973118 3.41987019 24.1926523 4.31852222 22.8955197 5.32867366 21.605914 6.40539191 20.3727599 7.58362456 19.1546595 8.86669995 17.9503584 10.2579464 16.7598566 11.7606923 15.5818996 13.3000499 14.4729391 14.940922 13.3865591 16.6849725 12.3202509 18.5371942 11.2752688 20.5025795 10.2516129 22.4879348 9.29695341 24.5448494 8.38369176 26.6749875 7.509319 28.8800133 6.67383513 31.1632551 5.88100358 33.4564819 5.1483871 35.8062906 4.45967742 38.2143451 3.81612903 40.6823099 3.21774194 43.2118489 2.66451613 45.7413879 2.16899642 48.310867 1.72240143 50.9236146 1.32473118 53.5796306 0.977240143 56.2805791 0.678673835 58.9732069 0.43655914 61.6924613 0.247132616 64.4350141 0.110394265 67.2041937 0.0288530466 70 0 72.7958063 0.0288530466 75.5649859 0.110394265 78.3075387 0.247132616 81.0267931 0.43655914 83.7194209 0.678673835 86.4203694 0.977240143 89.0763854 1.32473118 91.689133 1.72240143 94.2586121 2.16899642 96.7881511 2.66451613 99.3176901 3.21774194 101.785655 3.81612903 104.193709 4.45967742 106.543518 5.1483871 108.836745 5.88100358 111.119987 6.67383513 113.325012 7.509319 115.455151 8.38369176 117.512065 9.29695341 119.497421 10.2516129 121.462806 11.2752688 123.315027 12.3202509 125.059078 13.3865591 126.69995 14.4729391 128.239308 15.5818996 129.742054 16.7598566 131.1333 17.9503584 132.416375 19.1546595 133.594608 20.3727599 134.671326 21.605914 135.681478 22.8955197 136.58013 24.1926523 137.370611 25.4973118 138.057913 26.8132616 138.643701 28.1405018 139.05808 29.2707885 139.395906 30.4060932 139.658845 31.5451613 139.846896 32.6892473 139.961724 33.8408602"></polygon>
                </g>
                <g id="编组" transform="translate(48.078750, 0.000000)">
                    <g fill-opacity="0.7">
                        <polygon id="矩形" fill="url(#linearGradient-2)" points="6.52331518 10.4964569 27.0007072 3.1135413 27.0007072 30.0400746 6.52331518 37.4242773"></polygon>
                        <polygon id="矩形备份" fill="url(#linearGradient-3)" points="0 6.56173358 6.52331518 10.5286349 6.52331518 37.4551682 0 33.4882668"></polygon>
                        <g id="路径">
                            <polygon fill="#C9C9C9" points="0 6.56173358 6.52331518 10.5286349 27.0007072 3.1135413 26.0292384 2.84453339 6.68197913 9.60190909 1.73973629 6.76767265 20.7571416 0.269007909 19.8691802 0"></polygon>
                            <polygon fill="url(#linearGradient-4)" points="0 6.56173358 6.52331518 10.5286349 27.0007072 3.1135413 26.0292384 2.84453339 6.68197913 9.60190909 1.73973629 6.76767265 20.7571416 0.269007909 19.8691802 0"></polygon>
                        </g>
                        <polygon id="路径-14" fill="url(#linearGradient-5)" points="25.755056 2.9526514 20.2881087 0.508412076 1.73973629 6.76767265 6.68197913 9.60190909"></polygon>
                        <polygon id="路径-15" fill="#5E90E0" points="20.7571416 0.714351145 20.7571416 0.269007909 1.73973629 6.76767265 2.25609002 7.0392548"></polygon>
                        <polygon id="路径-21" fill="#FFFFFF" points="0.850383097 8.93131999 5.23034317 11.5634787 5.23034317 12.7399056 0.850383097 10.1025984"></polygon>
                        <polygon id="路径-21备份" fill="#FFFFFF" points="0.850383097 11.4605092 5.23034317 14.093955 5.23034317 15.2690948 0.850383097 12.6330748"></polygon>
                        <polygon id="路径-21备份-2" fill="#FFFFFF" points="0.850383097 30.9706617 5.23034317 33.6041076 5.23034317 34.7792474 0.850383097 32.1432273"></polygon>
                    </g>
                    <polyline id="路径-22" stroke-opacity="0.7" stroke="#FFFFFF" points="0 6.56173358 6.52331518 10.4964569 6.52331518 37.4242773"></polyline>
                    <line x1="6.52331518" y1="10.5286349" x2="27.0007072" y2="3.1135413" id="路径-23" stroke-opacity="0.7" stroke="#FFFFFF"></line>
                </g>
                <g id="编组" transform="translate(63.507726, 17.025076)">
                    <g transform="translate(0.000000, 0.000000)">
                        <polygon id="矩形" fill="url(#linearGradient-6)" points="12.6695626 13.9014722 33.7358438 6.51855658 33.7358438 33.4450898 12.6695626 40.8292926"></polygon>
                        <polygon id="矩形备份" fill="url(#linearGradient-7)" points="8.8817842e-16 6.56173358 12.6300475 14.0483903 12.6300475 40.9749236 8.8817842e-16 33.4882668"></polygon>
                        <g transform="translate(0.000000, 0.000000)" id="路径">
                            <polygon fill="#C9C9C9" points="3.55271368e-15 6.56173358 12.6300475 14.1050236 33.6963287 6.68992995 32.6979471 6.42092204 12.7933409 13.1782977 1.79049782 6.76767265 21.3556256 0.269007909 20.4417555 1.18838273e-12"></polygon>
                            <polygon fill="url(#linearGradient-8)" points="3.55271368e-15 6.56173358 12.6695626 14.4331109 33.7358438 7.01801733 33.1031494 6.77024689 13.1985432 13.5276226 1.79049782 6.76767265 21.3556256 0.269007909 20.4417555 1.75859327e-13"></polygon>
                        </g>
                        <polygon id="路径-14" fill="url(#linearGradient-9)" points="32.8209669 6.8783649 20.8729074 0.508412076 1.79049782 6.76767265 13.1985432 13.5276226"></polygon>
                        <polygon id="路径-15" fill="#5E90E0" points="21.3556256 0.714351145 21.3556256 0.269007909 1.79049782 6.76767265 2.32048518 7.0392548"></polygon>
                        <polygon id="路径-21备份" fill="#FFFFFF" points="5.13146444 14.0142706 6.04676693 14.5197509 6.04676693 15.6948907 5.13146444 15.1868362"></polygon>
                        <polygon id="路径-21备份-2" fill="#FFFFFF" points="6.83397209 14.8655245 7.74927457 15.3710047 7.74927457 16.5461445 6.83397209 16.03809"></polygon>
                        <polygon id="路径-21备份-3" fill="#FFFFFF" points="8.53647973 15.7167783 9.45178222 16.2222586 9.45178222 17.3973984 8.53647973 16.8893439"></polygon>
                        <polygon id="路径-21备份-4" fill="#FFFFFF" points="10.2389874 16.5680321 11.1542899 17.0735124 11.1542899 18.2486522 10.2389874 17.7405977"></polygon>
                        <polygon id="路径-21备份-2" fill="#FFFFFF" points="4.86414906 31.2899343 10.1578991 34.3835425 10.1578991 35.7640236 4.86414906 32.6673913"></polygon>
                    </g>
                    <polyline id="路径-22" stroke="#FFFFFF" points="2.66453526e-15 6.65826752 12.6300475 14.1050236 12.6300475 40.9749236"></polyline>
                    <line x1="12.7483445" y1="13.9478085" x2="33.8905428" y2="6.59578374" id="路径-23" stroke="#FFFFFF"></line>
                </g>
            </g>
        </g>
    </g>
</svg>