<?xml version="1.0" encoding="UTF-8"?>
<svg width="135px" height="96px" viewBox="0 0 135 96" version="1.1" xmlns="http://www.w3.org/2000/svg" xmlns:xlink="http://www.w3.org/1999/xlink">
    <title>01-6并行计算模型</title>
    <defs>
        <radialGradient cx="50.0000026%" cy="2.46780057%" fx="50.0000026%" fy="2.46780057%" r="70.7413404%" gradientTransform="translate(0.500000,0.024678),scale(0.527208,1.000000),rotate(91.899696),translate(-0.500000,-0.024678)" id="radialGradient-1">
            <stop stop-color="#0052D9" stop-opacity="0.15156181" offset="0%"></stop>
            <stop stop-color="#0052D9" stop-opacity="0" offset="100%"></stop>
        </radialGradient>
        <linearGradient x1="59.23435%" y1="22.0224413%" x2="8.070338%" y2="55.9334042%" id="linearGradient-2">
            <stop stop-color="#B5D1FF" offset="0%"></stop>
            <stop stop-color="#73A9FF" offset="74.914944%"></stop>
            <stop stop-color="#4286F5" offset="100%"></stop>
        </linearGradient>
        <polygon id="path-3" points="29.8247977 14.722648 29.7958291 15.2987011 29.7164337 15.8546716 29.5855384 16.3947874 29.4031435 16.9211625 29.1735404 17.429569 28.8999479 17.910494 28.583439 18.3649946 28.2207948 18.7951847 27.8216717 19.1894375 27.3871425 19.5456391 26.9139885 19.8659035 26.4000638 20.1491736 20.059156 22.7821061 4.51159344 29.644008 4.10710575 29.788814 3.71012845 29.8765431 3.31529696 29.9082525 2.92046548 29.8881699 2.54065476 29.8205233 2.17371898 29.7053127 1.82394979 29.545709 1.50100338 29.3469971 1.20273395 29.1081201 0.937724772 28.8343627 0.710267505 28.5288961 0.521435056 28.1896061 0.37981072 27.8281196 0.288613231 27.4402086 0.247842589 27.0216453 -9.05941988e-13 16.6347214 0.00858329311 16.0724091 0.0590101401 15.5238374 0.149134718 14.9868926 0.281102849 14.4605175 0.4516958 13.9436552 0.657694835 13.4458185 0.899099953 12.9648934 1.17805698 12.5008801 1.48920135 12.0590632 1.83146017 11.6404999 2.20590633 11.247304 2.61253984 10.8763047 3.04492323 10.5380717 3.50412941 10.2294341 3.9912313 9.95250584 4.50837471 9.70622994 26.6468335 0.186028147 27.0309358 0.0591907739 27.405382 -7.46069873e-14 27.7744636 0.00634186863 28.1392535 0.0708175331 28.4782936 0.188142103 28.7969484 0.358315578 29.0855616 0.574996089 29.3312584 0.831841769 29.5383303 1.13096657 29.6928296 1.45862979 29.7883187 1.81694536 29.8247977 2.21225518"></polygon>
        <linearGradient x1="50%" y1="0%" x2="50%" y2="100%" id="linearGradient-5">
            <stop stop-color="#B9DAFF" offset="0%"></stop>
            <stop stop-color="#83B3FF" offset="100%"></stop>
        </linearGradient>
        <linearGradient x1="50%" y1="0%" x2="50%" y2="100%" id="linearGradient-6">
            <stop stop-color="#D4E4FF" offset="0%"></stop>
            <stop stop-color="#A0C4FF" offset="100%"></stop>
        </linearGradient>
        <polygon id="path-7" points="29.8247977 14.722648 29.7958291 15.2987011 29.7164337 15.8546716 29.5855384 16.3947874 29.4031435 16.9211625 29.1735404 17.429569 28.8999479 17.910494 28.583439 18.3649946 28.2207948 18.7951847 27.8216717 19.1894375 27.3871425 19.5456391 26.9139885 19.8659035 26.4000638 20.1491736 20.059156 22.7821061 4.51159344 29.644008 4.10710575 29.788814 3.71012845 29.8765431 3.31529696 29.9082525 2.92046548 29.8881699 2.54065476 29.8205233 2.17371898 29.7053127 1.82394979 29.545709 1.50100338 29.3469971 1.20273395 29.1081201 0.937724772 28.8343627 0.710267505 28.5288961 0.521435056 28.1896061 0.37981072 27.8281196 0.288613231 27.4402086 0.247842589 27.0216453 0 16.6347214 0.00858329311 16.0724091 0.0590101401 15.5238374 0.149134718 14.9868926 0.281102849 14.4605175 0.4516958 13.9436552 0.657694835 13.4458185 0.899099953 12.9648934 1.17805698 12.5008801 1.48920135 12.0590632 1.83146017 11.6404999 2.20590633 11.247304 2.61253984 10.8763047 3.04492323 10.5380717 3.50412941 10.2294341 3.9912313 9.95250584 4.50837471 9.70622994 26.6468335 0.186028147 27.0309358 0.0591907739 27.405382 0 27.7744636 0.00634186863 28.1392535 0.0708175331 28.4782936 0.188142103 28.7969484 0.358315578 29.0855616 0.574996089 29.3312584 0.831841769 29.5383303 1.13096657 29.6928296 1.45862979 29.7883187 1.81694536 29.8247977 2.21225518"></polygon>
    </defs>
    <g id="页面-1" stroke="none" stroke-width="1" fill="none" fill-rule="evenodd">
        <g id="01Light" transform="translate(-1028.000000, -567.000000)">
            <rect fill="#FFFFFF" x="0" y="0" width="1440" height="1081"></rect>
            <rect id="矩形" x="220" y="0" width="1000" height="903"></rect>
            <rect id="矩形备份-4" fill="#FFFFFF" x="970" y="541" width="250" height="288"></rect>
            <g id="01-6并行计算模型" transform="translate(1028.000000, 567.000000)">
                <g id="编组" transform="translate(0.000000, 0.000000)">
                    <polygon id="椭圆形" fill="url(#radialGradient-1)" fill-rule="nonzero" points="134.671804 60.0370585 134.634985 61.2127575 134.524527 62.380822 134.343633 63.5412521 134.090701 64.6965926 133.765732 65.8481159 133.367124 66.9945496 132.80363 68.3407503 132.142486 69.6754994 131.382089 70.9987969 130.517639 72.31446 129.545932 73.6224886 128.510192 74.8732593 127.376801 76.1087611 126.142558 77.3302664 124.80426 78.5377754 123.358707 79.7325603 121.877935 80.8573632 120.299512 81.9592628 118.621837 83.0408041 116.840108 84.1007145 114.949523 85.138994 113.039727 86.1072915 111.061096 87.0335998 109.012028 87.9204636 106.890922 88.7678829 104.694577 89.5720406 102.488627 90.3151231 100.228249 91.0136714 97.9118412 91.6664134 95.5378036 92.2733489 93.1045352 92.8344779 90.6712667 93.3370765 88.1995782 93.7900514 85.686268 94.1934026 83.1313361 94.5458578 80.5331817 94.8486894 77.9430315 95.0942628 75.3272679 95.2863955 72.6890926 95.4250872 70.025304 95.5077933 67.335902 95.5370585 64.6465001 95.5077933 61.9827114 95.4250872 59.3445362 95.2863955 56.7287726 95.0942628 54.1386223 94.8486894 51.5404679 94.5458578 48.985536 94.1934026 46.4722259 93.7900514 44.0005374 93.3370765 41.5672689 92.8344779 39.1340005 92.2733489 36.7599629 91.6664134 34.4435553 91.0136714 32.183177 90.3151231 29.9772271 89.5720406 27.7808821 88.7678829 25.6597764 87.9204636 23.6107082 87.0335998 21.6320767 86.1072915 19.7222812 85.138994 17.8316956 84.1007145 16.0499668 83.0408041 14.3722922 81.9592628 12.7938694 80.8573632 11.3130975 79.7325603 9.86754393 78.5377754 8.52924627 77.3302664 7.29500287 76.1087611 6.16161203 74.8732593 5.1258721 73.6224886 4.15416556 72.31446 3.28971492 70.9987969 2.52931853 69.6754994 1.86817387 68.3407503 1.30468013 66.9945496 0.906072333 65.8481159 0.581102927 64.6965926 0.328171075 63.5412521 0.147276775 62.380822 0.0368191938 61.2127575 2.4158453e-13 60.0370585 0.0368191938 58.8613596 0.147276775 57.6932951 0.328171075 56.532865 0.581102927 55.3775245 0.906072333 54.2260012 1.30468013 53.0795675 1.86817387 51.7333668 2.52931853 50.3986177 3.28971492 49.0753202 4.15416556 47.7596571 5.1258721 46.4516284 6.16161203 45.2008578 7.29500287 43.965356 8.52924627 42.7438507 9.86754393 41.5363417 11.3130975 40.3415568 12.7938694 39.2167539 14.3722922 38.1148542 16.0499668 37.033313 17.8316956 35.9734026 19.7222812 34.9351231 21.6320767 33.9668256 23.6107082 33.0405173 25.6597764 32.1536535 27.7808821 31.3062342 29.9772271 30.5020765 32.183177 29.758994 34.4435553 29.0604456 36.7599629 28.4077037 39.1340005 27.8007682 41.5672689 27.2396392 44.0005374 26.7370406 46.4722259 26.2840657 48.985536 25.8807145 51.5404679 25.5282593 54.1386223 25.2254277 56.7287726 24.9798542 59.3445362 24.7877216 61.9827114 24.6490299 64.6465001 24.5663238 67.335902 24.5370585 70.025304 24.5663238 72.6890926 24.6490299 75.3272679 24.7877216 77.9430315 24.9798542 80.5331817 25.2254277 83.1313361 25.5282593 85.686268 25.8807145 88.1995782 26.2840657 90.6712667 26.7370406 93.1045352 27.2396392 95.5378036 27.8007682 97.9118412 28.4077037 100.228249 29.0604456 102.488627 29.758994 104.694577 30.5020765 106.890922 31.3062342 109.012028 32.1536535 111.061096 33.0405173 113.039727 33.9668256 114.949523 34.9351231 116.840108 35.9734026 118.621837 37.033313 120.299512 38.1148542 121.877935 39.2167539 123.358707 40.3415568 124.80426 41.5363417 126.142558 42.7438507 127.376801 43.965356 128.510192 45.2008578 129.545932 46.4516284 130.517639 47.7596571 131.382089 49.0753202 132.142486 50.3986177 132.80363 51.7333668 133.367124 53.0795675 133.765732 54.2260012 134.090701 55.3775245 134.343633 56.532865 134.524527 57.6932951 134.634985 58.8613596"></polygon>
                    <g transform="translate(50.104090, 0.000000)">
                        <polyline id="路径" fill="url(#linearGradient-2)" points="28.5083352 0.38474003 33.7945708 3.95521207 6.61128152 16.3831606 6.61128152 33.0781298 1.80249155 30.3458414 1.51065959 30.1576993 1.24886915 29.9420758 1.01497441 29.7000278 0.810048287 29.4336693 0.637309513 29.1493422 0.497831 28.8449325 0.393758571 28.5267821 0.326165138 28.1980619 0.297196524 27.855601 1.18660637e-12 16.4994282 0.00858329311 15.931831 0.0568643169 15.3769175 0.146988895 14.8357447 0.277884114 14.3040847 0.449549977 13.7819375 0.655549011 13.2788159 0.899099953 12.793663 1.17805698 12.3264787 1.49134718 11.8793769 1.83575181 11.4576427 2.21127089 11.0612759 2.62005022 10.6881626 3.05457944 10.3467587 3.51593144 10.0381211 4.00517915 9.76013583 4.52554129 9.51280295 26.3271058 0.179686278 26.6961874 0.0581337958 27.0674148 -3.05533376e-13 27.4450797 0.00528489053 27.8163071 0.0708175331 28.1692951 0.196597928 28.5083352 0.38474003"></polyline>
                        <g id="路径-44" transform="translate(4.720811, 3.592669)">
                            <mask id="mask-4" fill="white">
                                <use xlink:href="#path-3"></use>
                            </mask>
                            <use id="蒙版" fill="#D4E4FF" xlink:href="#path-3"></use>
                            <path d="M1.77635684e-15,22.3963248 C1.3314894,18.7733457 3.56835494,16.2926128 6.71059662,14.9541262 C11.4239591,12.9463963 15.009748,19.4902725 20.8735279,17.7173313 C24.7827144,16.5353704 27.7664711,13.1386634 29.8247977,7.52721019" stroke="url(#linearGradient-5)" stroke-linecap="round" mask="url(#mask-4)"></path>
                        </g>
                        <line x1="25.39591" y1="25.5187171" x2="31.4581189" y2="28.422719" id="路径-2备份" stroke="url(#linearGradient-6)"></line>
                        <line x1="15.39591" y1="29.5187171" x2="21.4581189" y2="32.422719" id="路径-2备份-2" stroke="url(#linearGradient-6)"></line>
                        <polyline id="路径备份" fill="url(#linearGradient-2)" points="40.7578746 24.883819 46.0441103 28.454291 18.860821 40.8822396 18.860821 57.5772088 14.052031 54.8449204 13.7601991 54.6567783 13.4984086 54.4411547 13.2645139 54.1991067 13.0595878 53.9327482 12.886849 53.6484211 12.7473705 53.3440114 12.643298 53.025861 12.5757046 52.6971408 12.546736 52.3546799 12.2495395 40.9985072 12.2581228 40.4309099 12.3064038 39.8759964 12.3965284 39.3348236 12.5274236 38.8031636 12.6990894 38.2810165 12.9050885 37.7778949 13.1486394 37.2927419 13.4275964 36.8255576 13.7408866 36.3784559 14.0852913 35.9567216 14.4608104 35.5603548 14.8695897 35.1872415 15.3041189 34.8458376 15.7654709 34.5372 16.2547186 34.2592148 16.7750808 34.0118819 38.5766453 24.6787652 38.9457269 24.5572127 39.3169543 24.4990789 39.6946192 24.5043638 40.0658466 24.5698965 40.4188345 24.6956769 40.7578746 24.883819"></polyline>
                        <g id="路径-44备份" transform="translate(16.970351, 28.091748)">
                            <mask id="mask-8" fill="white">
                                <use xlink:href="#path-7"></use>
                            </mask>
                            <use id="蒙版" fill="#D4E4FF" xlink:href="#path-7"></use>
                            <path d="M-1.24953947,18.8972459 C0.0819499301,15.2742668 2.31881547,12.7935339 5.46105715,11.4550473 C10.1744197,9.44731739 13.7602086,15.9911936 19.6239884,14.2182523 C23.533175,13.0362915 26.5169316,9.63958443 28.5752583,4.02813124" stroke="url(#linearGradient-5)" stroke-linecap="round" mask="url(#mask-8)" transform="translate(13.662859, 11.462689) scale(-1, 1) translate(-13.662859, -11.462689) "></path>
                        </g>
                    </g>
                </g>
            </g>
        </g>
    </g>
</svg>